<svg id="svg" version="1.1" width="1280" height="1280" viewBox="0 0 1280 1280" xmlns="http://www.w3.org/2000/svg"><path d="M624.500 0.669 C 610.821 1.125,581.815 3.086,575.000 4.015 C 571.425 4.503,563.550 5.384,557.500 5.974 C 551.450 6.563,543.125 7.699,539.000 8.498 C 534.875 9.296,530.150 10.182,528.500 10.465 C 523.430 11.336,514.633 12.979,512.000 13.547 C 510.625 13.844,506.350 14.684,502.500 15.416 C 494.423 16.950,468.461 23.668,465.500 24.991 C 464.400 25.482,461.925 26.185,460.000 26.554 C 455.776 27.364,418.732 39.557,414.500 41.530 C 412.850 42.300,407.225 44.580,402.000 46.597 C 391.430 50.677,387.613 52.326,374.459 58.493 C 369.487 60.825,364.312 63.071,362.959 63.485 C 361.607 63.898,359.825 64.764,359.000 65.408 C 358.175 66.053,354.575 67.912,351.000 69.540 C 347.425 71.168,344.275 72.779,344.000 73.121 C 343.725 73.463,340.787 75.106,337.472 76.773 C 334.157 78.440,326.282 82.832,319.972 86.533 C 313.662 90.234,307.600 93.773,306.500 94.398 C 301.805 97.066,280.783 110.939,271.140 117.735 C 227.341 148.600,183.275 189.216,149.882 229.500 C 145.322 235.000,141.332 239.725,141.015 240.000 C 139.161 241.606,117.862 270.651,109.850 282.500 C 68.496 343.657,38.363 410.663,20.132 482.000 C -3.614 574.920,-6.045 673.221,13.070 767.500 C 16.289 783.379,23.221 811.794,25.511 818.500 C 26.262 820.700,28.754 828.575,31.048 836.000 C 50.368 898.520,86.232 968.099,127.179 1022.500 C 148.187 1050.411,162.593 1066.835,189.898 1094.003 C 228.007 1131.919,263.306 1159.646,308.500 1187.163 C 472.031 1286.731,674.350 1307.293,855.000 1242.706 C 922.466 1218.585,983.326 1184.575,1039.500 1139.604 C 1079.075 1107.921,1120.729 1065.069,1150.819 1025.083 C 1256.008 885.297,1299.233 710.775,1271.456 538.000 C 1257.162 449.086,1223.837 363.577,1174.333 288.789 C 1165.016 274.714,1143.045 244.502,1137.397 238.000 C 1136.202 236.625,1132.216 231.900,1128.537 227.500 C 1097.396 190.248,1054.794 150.790,1014.000 121.415 C 1002.002 112.776,983.148 100.000,982.397 100.000 C 982.084 100.000,979.953 98.696,977.663 97.103 C 972.962 93.831,952.751 81.991,943.145 76.881 C 930.581 70.197,916.486 63.065,915.776 63.033 C 915.378 63.015,911.778 61.402,907.776 59.449 C 899.798 55.554,880.787 47.480,871.772 44.156 C 868.622 42.995,865.247 41.613,864.272 41.084 C 861.049 39.338,824.060 27.298,816.500 25.535 C 815.950 25.407,814.825 25.028,814.000 24.692 C 813.175 24.357,806.200 22.455,798.500 20.465 C 779.392 15.529,756.651 10.873,745.458 9.606 C 744.334 9.479,742.984 9.114,742.458 8.795 C 741.590 8.271,728.789 6.440,720.000 5.584 C 718.075 5.397,709.525 4.514,701.000 3.623 C 686.190 2.074,643.360 -0.169,636.000 0.218 C 634.075 0.320,628.900 0.522,624.500 0.669 M676.639 16.026 C 733.198 19.276,787.627 29.818,839.500 47.569 C 857.849 53.849,875.915 60.593,884.000 64.182 C 886.475 65.281,889.400 66.542,890.500 66.984 C 903.690 72.286,958.920 101.170,959.833 103.243 C 960.017 103.660,960.589 104.000,961.105 104.000 C 962.100 104.000,963.856 105.080,982.000 116.852 C 992.383 123.589,1006.722 133.596,1008.000 134.998 C 1008.275 135.299,1009.850 136.395,1011.500 137.432 C 1013.150 138.469,1019.900 143.611,1026.500 148.860 C 1061.133 176.404,1086.550 201.078,1119.865 239.500 C 1121.854 241.794,1140.108 265.262,1144.755 271.501 C 1151.627 280.725,1155.058 285.710,1162.656 297.500 C 1172.517 312.803,1183.000 329.848,1183.000 330.578 C 1183.000 330.832,1184.154 332.867,1185.564 335.101 C 1190.096 342.281,1208.649 380.045,1214.991 395.000 C 1241.073 456.506,1256.352 518.039,1262.666 587.000 C 1264.736 609.603,1265.028 667.682,1263.174 688.000 C 1254.667 781.253,1232.361 857.472,1190.805 935.286 C 1178.874 957.627,1155.140 995.413,1144.817 1008.500 C 1144.383 1009.050,1139.676 1015.125,1134.357 1022.000 C 1116.970 1044.472,1103.955 1059.150,1081.553 1081.553 C 1049.477 1113.628,1020.146 1137.772,985.500 1160.619 C 969.157 1171.396,963.029 1175.142,946.000 1184.768 C 903.540 1208.767,860.823 1226.650,813.000 1240.446 C 670.704 1281.494,514.918 1270.071,381.000 1208.771 C 341.950 1190.895,312.034 1173.285,268.629 1142.623 C 249.242 1128.928,222.313 1105.482,197.945 1081.083 C 153.494 1036.575,118.690 990.036,89.784 936.451 C -6.507 757.954,-9.832 541.173,80.942 360.114 C 87.599 346.837,101.814 320.825,102.863 320.000 C 103.214 319.725,104.356 317.925,105.403 316.000 C 115.644 297.167,147.871 252.849,168.306 229.500 C 191.079 203.478,223.336 172.343,246.000 154.506 C 250.125 151.260,253.725 148.339,254.000 148.017 C 255.147 146.669,278.416 129.774,290.000 121.877 C 318.392 102.521,347.748 86.069,383.272 69.602 C 387.546 67.621,391.264 66.000,391.533 66.000 C 391.802 66.000,393.929 65.129,396.261 64.064 C 409.451 58.039,439.787 47.061,460.500 40.816 C 470.029 37.944,498.705 30.479,504.000 29.493 C 505.375 29.237,509.875 28.343,514.000 27.508 C 566.247 16.919,622.754 12.930,676.639 16.026 M605.000 65.657 C 577.149 68.340,567.403 69.413,556.000 71.053 C 539.039 73.491,526.338 75.673,525.276 76.330 C 524.826 76.608,522.442 77.135,519.979 77.501 C 517.515 77.868,510.325 79.514,504.000 81.160 C 497.675 82.805,489.323 84.977,485.441 85.986 C 464.158 91.516,426.184 105.230,406.000 114.675 C 401.875 116.605,396.813 118.867,394.750 119.701 C 392.688 120.535,391.000 121.678,391.000 122.241 C 391.000 123.023,393.727 128.150,395.548 130.791 C 395.658 130.951,400.122 129.038,405.467 126.541 C 410.812 124.043,415.373 122.000,415.603 122.000 C 415.833 122.000,417.929 121.126,420.261 120.058 C 422.592 118.990,428.629 116.525,433.674 114.579 C 458.415 105.041,473.123 100.347,505.000 91.814 C 527.272 85.853,570.035 79.165,600.000 76.956 C 619.040 75.553,664.959 75.563,682.000 76.974 C 717.689 79.929,755.156 86.267,786.000 94.566 C 812.456 101.685,849.240 114.761,871.201 124.853 C 874.887 126.547,879.490 128.596,881.430 129.406 L 884.958 130.880 887.424 126.746 C 889.699 122.930,889.759 122.523,888.195 121.470 C 886.714 120.474,863.884 110.347,851.000 104.972 C 836.719 99.014,809.120 89.895,790.515 84.988 C 783.923 83.250,778.292 81.680,778.001 81.501 C 777.363 81.106,755.280 76.291,745.500 74.413 C 730.026 71.443,703.270 68.046,679.500 66.036 C 668.637 65.117,613.518 64.837,605.000 65.657 M666.523 125.250 C 664.231 130.479,657.700 144.469,649.877 160.903 C 646.630 167.725,644.168 173.502,644.407 173.741 C 644.646 173.980,647.498 174.416,650.745 174.711 L 656.648 175.246 658.853 170.120 L 661.058 164.994 671.279 165.581 C 676.901 165.903,682.009 166.320,682.632 166.507 C 683.254 166.694,684.299 169.077,684.953 171.804 C 686.066 176.445,686.377 176.800,689.821 177.370 C 694.791 178.191,699.000 178.155,699.000 177.290 C 699.000 174.459,682.420 123.236,681.184 122.250 C 680.323 121.563,677.090 121.000,674.001 121.000 L 668.385 121.000 666.523 125.250 M579.000 123.378 C 570.687 125.384,566.744 127.518,564.132 131.425 C 562.099 134.468,561.823 135.884,562.179 141.473 C 563.033 154.888,568.960 157.834,590.492 155.542 C 597.232 154.824,599.493 155.845,600.507 160.063 C 600.925 161.803,600.515 163.377,599.230 164.965 C 597.515 167.083,596.498 167.312,588.418 167.401 L 579.500 167.500 578.000 164.289 C 576.519 161.119,576.430 161.086,571.000 161.667 C 567.975 161.991,565.157 162.564,564.737 162.941 C 563.858 163.730,565.634 169.419,567.818 172.808 C 568.636 174.077,571.130 176.046,573.359 177.183 C 576.856 178.967,578.653 179.181,586.456 178.741 C 598.850 178.043,604.232 176.467,609.027 172.129 C 612.245 169.219,613.155 167.607,613.623 163.990 C 614.315 158.637,612.787 152.271,609.943 148.655 C 606.731 144.571,601.262 143.587,589.264 144.935 C 576.443 146.376,574.754 145.749,575.196 139.709 C 575.596 134.234,578.135 132.900,587.500 133.243 C 594.340 133.494,594.534 133.575,596.000 136.770 C 597.142 139.260,597.977 139.919,599.500 139.534 C 600.600 139.255,603.188 139.021,605.250 139.014 C 608.704 139.001,609.000 138.775,609.000 136.148 C 609.000 132.846,605.685 127.561,601.816 124.696 C 598.399 122.165,586.802 121.495,579.000 123.378 M722.555 128.366 C 721.080 133.462,711.010 179.344,711.303 179.636 C 711.481 179.814,718.798 181.592,727.563 183.587 C 752.385 189.237,757.574 188.677,762.073 179.858 C 765.372 173.390,765.734 166.078,762.995 161.205 L 760.734 157.182 762.968 154.044 C 767.391 147.833,766.348 139.227,760.729 135.567 C 758.415 134.059,742.289 130.013,724.836 126.561 C 723.825 126.361,722.930 127.070,722.555 128.366 M533.832 131.355 C 531.814 131.985,529.891 132.774,529.557 133.108 C 529.077 133.589,535.668 162.210,537.554 167.834 C 538.425 170.429,535.987 168.340,521.008 153.655 L 505.866 138.809 498.183 140.747 C 493.957 141.814,490.561 143.094,490.635 143.593 C 491.143 147.018,503.354 194.637,503.863 195.179 C 504.464 195.820,514.770 193.564,515.759 192.574 C 516.013 192.321,514.131 184.152,511.578 174.422 C 509.024 164.692,507.164 156.503,507.443 156.224 C 507.722 155.945,515.000 162.693,523.616 171.220 L 539.281 186.724 546.891 184.776 C 551.076 183.704,554.602 182.728,554.726 182.605 C 554.901 182.431,543.639 139.842,541.277 131.750 C 540.703 129.780,539.142 129.697,533.832 131.355 M354.000 141.171 C 347.125 145.095,341.355 148.419,341.178 148.558 C 340.687 148.944,345.932 157.000,346.675 157.000 C 347.032 157.000,350.739 155.041,354.912 152.647 C 359.085 150.252,364.609 147.100,367.188 145.641 L 371.875 142.989 369.688 138.498 C 368.484 136.027,367.275 134.013,367.000 134.022 C 366.725 134.030,360.875 137.247,354.000 141.171 M910.555 139.082 C 908.355 143.673,908.111 143.314,916.308 147.586 C 918.952 148.964,923.980 151.846,927.482 153.989 C 934.345 158.190,934.388 158.183,937.354 152.341 L 938.958 149.181 934.229 146.216 C 924.919 140.377,915.128 135.000,913.826 135.011 C 913.096 135.018,911.625 136.849,910.555 139.082 M676.828 144.750 C 679.509 153.696,679.752 155.520,678.250 155.400 C 677.563 155.345,674.750 155.233,672.000 155.150 C 669.250 155.067,667.000 154.534,667.000 153.965 C 667.000 152.275,673.360 138.000,674.113 138.000 C 674.494 138.000,675.715 141.037,676.828 144.750 M742.815 141.140 C 744.088 141.613,746.194 142.000,747.494 142.000 C 752.429 142.000,754.501 146.929,751.250 150.935 C 749.528 153.057,749.388 153.066,742.500 151.528 C 738.650 150.669,734.487 149.740,733.250 149.464 C 730.714 148.898,730.571 148.085,732.062 142.715 C 733.089 139.018,733.199 138.946,736.807 139.605 C 738.838 139.976,741.542 140.667,742.815 141.140 M784.065 160.250 C 772.763 190.819,771.921 193.323,772.717 194.001 C 773.148 194.369,775.688 195.475,778.363 196.461 C 784.064 198.560,783.916 198.686,787.119 189.000 C 788.301 185.425,789.452 182.174,789.677 181.775 C 790.074 181.073,797.715 183.618,799.269 184.970 C 799.692 185.337,800.817 190.105,801.769 195.564 L 803.500 205.490 809.351 207.811 C 812.569 209.088,815.462 209.871,815.781 209.552 C 816.100 209.233,815.846 206.166,815.217 202.736 C 812.577 188.356,812.576 188.000,815.162 187.996 C 824.393 187.982,833.069 170.178,828.309 161.020 C 826.235 157.029,821.928 153.871,815.192 151.400 C 812.611 150.453,806.572 148.176,801.772 146.339 C 796.971 144.503,792.458 143.000,791.743 143.000 C 790.973 143.000,787.842 150.034,784.065 160.250 M807.631 159.585 C 811.409 161.007,815.063 162.637,815.750 163.208 C 818.576 165.553,815.826 175.286,811.994 176.502 C 810.249 177.056,796.184 173.044,794.148 171.412 C 793.740 171.085,796.835 161.338,798.169 158.750 C 799.326 156.504,799.480 156.518,807.631 159.585 M444.128 160.643 L 438.756 163.166 439.352 170.833 C 439.680 175.050,440.246 188.063,440.611 199.750 C 440.975 211.438,441.541 221.000,441.867 221.000 C 442.194 221.000,444.813 220.025,447.687 218.834 L 452.913 216.668 453.207 210.721 L 453.500 204.774 463.404 200.834 L 473.308 196.895 476.946 200.447 C 478.947 202.401,481.071 204.000,481.665 204.000 C 483.147 204.000,492.000 200.035,492.000 199.371 C 492.000 198.001,452.319 158.030,451.000 158.072 C 450.175 158.098,447.083 159.255,444.128 160.643 M745.206 162.828 C 750.351 164.213,751.559 164.935,751.822 166.779 C 752.244 169.739,750.249 175.691,748.626 176.313 C 747.923 176.583,742.657 175.802,736.924 174.577 C 729.562 173.005,726.510 171.932,726.533 170.925 C 726.551 170.141,726.946 167.318,727.411 164.651 L 728.257 159.802 733.584 160.467 C 736.515 160.833,741.744 161.896,745.206 162.828 M307.500 171.070 C 301.450 175.471,294.700 180.292,292.500 181.785 C 290.300 183.277,288.050 184.990,287.500 185.591 C 286.950 186.193,282.120 190.162,276.767 194.412 C 238.205 225.027,196.709 269.550,167.638 311.500 C 160.299 322.091,146.055 344.465,141.457 352.625 C 114.748 400.025,96.934 443.386,83.583 493.500 C 75.823 522.628,70.638 552.160,66.587 590.300 L 65.971 596.101 71.713 595.800 L 77.455 595.500 78.686 583.000 C 81.037 559.126,87.673 520.339,92.373 503.000 C 93.193 499.975,94.818 493.900,95.983 489.500 C 100.249 473.397,109.897 444.313,114.893 432.500 C 115.358 431.400,116.672 428.250,117.813 425.500 C 126.386 404.832,136.679 383.248,145.606 367.216 C 152.648 354.571,171.552 323.920,174.000 321.179 C 174.825 320.256,176.813 317.475,178.417 315.000 C 183.148 307.700,195.658 291.342,205.924 279.028 C 228.307 252.182,254.054 226.497,279.500 205.628 C 283.350 202.471,288.241 198.450,290.369 196.694 C 295.233 192.678,318.581 175.723,322.999 172.998 C 324.290 172.202,324.154 171.444,322.020 167.537 C 320.657 165.042,319.307 163.015,319.021 163.034 C 318.734 163.053,313.550 166.669,307.500 171.070 M958.336 168.350 L 956.173 172.645 961.336 176.010 C 996.832 199.138,1046.248 244.601,1077.085 282.500 C 1085.408 292.729,1097.824 309.200,1101.583 315.000 C 1103.187 317.475,1105.175 320.256,1106.000 321.179 C 1108.221 323.667,1127.172 354.187,1132.587 364.000 C 1162.201 417.658,1182.552 473.517,1193.949 532.423 C 1196.669 546.486,1201.414 580.403,1202.212 591.500 L 1202.500 595.500 1207.750 595.802 L 1213.000 596.105 1212.999 591.802 C 1212.996 580.431,1207.277 541.077,1202.420 519.000 C 1189.888 462.040,1171.049 411.983,1142.775 360.520 C 1131.808 340.559,1109.659 306.615,1098.482 292.641 C 1097.100 290.914,1095.639 289.048,1095.235 288.496 C 1077.112 263.730,1040.203 225.139,1012.547 202.039 C 993.415 186.059,963.811 163.972,961.598 164.027 C 960.994 164.043,959.526 165.988,958.336 168.350 M857.697 175.096 C 847.173 177.572,836.000 193.771,836.000 206.552 C 836.000 216.076,839.871 221.739,851.000 228.500 C 858.429 233.013,867.392 234.849,873.610 233.133 C 879.761 231.435,885.913 225.398,890.393 216.665 C 897.221 203.354,896.284 194.279,887.203 185.788 C 882.307 181.209,874.358 176.885,867.500 175.070 C 862.975 173.872,862.896 173.872,857.697 175.096 M464.000 187.754 C 464.000 189.074,456.079 193.000,453.417 193.000 C 452.297 193.000,452.000 191.069,452.000 183.781 L 452.000 174.563 458.000 180.500 C 461.300 183.766,464.000 187.030,464.000 187.754 M399.286 182.381 C 396.969 183.547,395.056 184.759,395.036 185.075 C 395.016 185.391,398.525 192.141,402.834 200.075 C 407.142 208.009,412.836 218.550,415.486 223.500 C 418.136 228.450,420.475 232.702,420.684 232.948 C 421.221 233.583,431.992 227.662,431.997 226.730 C 431.998 226.307,430.875 224.178,429.500 222.000 C 428.125 219.822,427.000 217.813,427.000 217.535 C 427.000 217.257,425.722 214.886,424.160 212.265 C 420.264 205.727,409.835 187.165,408.001 183.503 C 406.167 179.841,404.712 179.653,399.286 182.381 M872.541 187.880 C 882.232 192.281,884.395 199.888,879.017 210.650 C 874.963 218.764,872.177 221.186,866.283 221.723 C 860.784 222.224,854.009 219.231,850.746 214.861 C 846.836 209.625,849.171 198.350,855.610 191.366 C 860.968 185.554,865.409 184.640,872.541 187.880 M370.000 201.941 C 368.625 202.363,365.787 203.631,363.694 204.758 C 358.860 207.362,338.999 221.176,339.004 221.932 C 339.011 222.929,365.227 262.739,368.586 266.854 C 368.744 267.048,373.479 264.123,379.106 260.354 C 399.430 246.739,404.463 240.007,402.240 229.409 C 399.418 215.952,385.080 200.803,375.434 201.086 C 373.820 201.133,371.375 201.518,370.000 201.941 M382.725 219.587 C 390.599 228.535,391.384 235.794,385.186 242.335 C 381.377 246.355,373.857 251.272,372.989 250.310 C 369.611 246.570,354.914 223.669,355.281 222.719 C 355.540 222.048,358.621 219.783,362.126 217.685 C 367.756 214.316,369.082 213.922,373.485 214.311 C 377.962 214.707,378.904 215.245,382.725 219.587 M929.500 221.977 C 919.263 228.436,910.948 233.601,898.798 241.046 L 887.095 248.217 892.018 252.109 C 894.726 254.249,897.189 256.000,897.492 256.000 C 897.795 256.000,899.822 254.823,901.997 253.384 C 904.171 251.944,906.627 251.027,907.455 251.344 C 909.673 252.195,924.000 263.122,924.000 263.962 C 924.000 264.358,923.366 266.789,922.591 269.365 L 921.182 274.047 925.735 277.524 C 928.239 279.436,930.629 281.000,931.046 281.000 C 931.810 281.000,932.293 279.486,939.979 253.000 C 942.293 245.025,944.990 235.806,945.972 232.514 C 946.953 229.222,947.570 226.072,947.341 225.514 C 946.803 224.198,937.644 217.971,936.430 218.095 C 935.919 218.148,932.800 219.895,929.500 221.977 M930.270 243.782 C 928.788 248.302,927.295 252.000,926.952 252.000 C 926.006 252.000,917.000 244.828,917.000 244.074 C 917.000 243.712,919.925 241.705,923.499 239.614 C 927.074 237.523,930.274 235.365,930.612 234.819 C 930.959 234.257,931.603 234.203,932.095 234.695 C 932.587 235.187,931.795 239.129,930.270 243.782 M317.584 238.914 L 313.762 242.828 325.631 255.965 C 337.998 269.653,339.602 271.834,336.386 270.587 C 333.603 269.508,297.075 258.995,296.226 259.029 C 294.890 259.082,284.848 269.046,285.176 269.993 C 285.354 270.507,291.125 277.109,298.000 284.663 C 304.875 292.217,312.750 300.976,315.500 304.127 C 318.250 307.278,320.725 309.883,321.000 309.917 C 321.953 310.034,330.087 301.762,329.794 300.973 C 329.632 300.537,325.675 296.027,321.000 290.950 C 306.492 275.197,305.045 273.508,305.819 273.238 C 306.232 273.094,315.555 275.681,326.535 278.987 C 337.516 282.293,346.950 284.978,347.500 284.954 C 348.050 284.930,351.046 282.559,354.158 279.686 L 359.815 274.462 355.800 269.981 C 351.397 265.067,331.375 243.535,326.333 238.293 C 324.592 236.482,322.771 235.000,322.286 235.000 C 321.802 235.000,319.686 236.761,317.584 238.914 M960.098 270.664 C 949.549 280.889,941.052 289.657,941.216 290.147 C 941.943 292.328,962.945 312.453,966.954 314.810 C 973.213 318.490,979.915 318.403,986.546 314.554 C 995.618 309.289,1003.803 299.504,1005.928 291.383 C 1007.880 283.924,1004.255 277.037,991.307 263.604 C 978.290 250.100,982.233 249.208,960.098 270.664 M986.323 273.019 C 991.916 278.874,994.306 283.860,993.388 287.758 C 992.319 292.302,989.055 296.866,984.255 300.531 C 976.180 306.697,969.025 305.126,960.225 295.254 L 956.950 291.580 968.709 279.790 C 975.177 273.306,980.707 268.000,980.998 268.000 C 981.289 268.000,983.686 270.259,986.323 273.019 M269.653 285.962 C 267.644 288.186,266.000 290.392,266.000 290.864 C 266.000 291.604,277.229 302.246,290.414 314.000 C 292.574 315.925,296.851 319.846,299.920 322.714 L 305.500 327.928 309.705 323.714 C 312.017 321.396,313.899 319.050,313.886 318.500 C 313.874 317.950,310.239 314.350,305.809 310.500 C 301.378 306.650,297.244 303.050,296.622 302.500 C 295.999 301.950,291.667 298.149,286.995 294.054 C 282.323 289.959,277.331 285.553,275.903 284.264 L 273.306 281.919 269.653 285.962 M610.526 289.153 C 605.040 289.636,592.498 291.381,582.654 293.031 C 539.159 300.322,499.309 314.773,461.000 337.147 C 454.125 341.162,448.275 344.720,448.000 345.054 C 447.725 345.388,443.900 348.057,439.500 350.984 C 409.611 370.872,372.811 407.530,350.586 439.554 C 333.176 464.640,315.824 498.800,306.675 526.000 C 303.653 534.982,299.000 550.995,299.000 552.409 C 299.000 552.654,316.437 553.033,337.750 553.252 C 380.935 553.695,382.014 553.835,397.677 561.041 C 420.349 571.472,435.714 588.685,444.238 613.200 C 447.392 622.270,447.472 622.920,447.470 639.500 C 447.469 654.545,447.198 657.363,445.119 664.000 C 440.469 678.844,433.496 690.538,423.049 701.010 C 415.075 709.003,409.559 712.869,398.759 718.031 C 382.350 725.876,379.343 726.299,336.750 726.759 C 311.102 727.036,299.000 727.506,299.000 728.225 C 299.000 732.244,308.737 760.934,315.723 777.500 C 348.244 854.615,408.337 918.204,484.000 955.566 C 520.321 973.501,554.035 983.766,596.000 989.666 C 611.858 991.895,665.188 992.230,680.000 990.194 C 726.208 983.840,760.322 973.461,799.232 953.919 C 873.160 916.788,931.673 854.130,964.448 777.000 C 971.868 759.539,981.000 732.101,981.000 727.270 C 981.000 726.266,973.186 726.000,943.690 726.000 C 909.256 726.000,905.730 725.840,897.940 723.917 C 867.846 716.492,843.316 693.089,834.957 663.829 C 831.912 653.168,831.202 634.053,833.440 622.968 C 838.987 595.496,856.344 573.298,881.562 561.427 C 898.001 553.688,897.754 553.721,941.750 553.264 C 963.337 553.040,981.000 552.548,981.000 552.171 C 981.000 547.973,970.414 516.676,964.185 502.457 C 944.929 458.505,922.246 425.138,889.056 391.941 C 849.916 352.792,808.693 326.777,756.000 307.968 C 711.026 291.916,657.618 285.008,610.526 289.153 M679.000 295.469 C 685.875 296.318,693.525 297.261,696.000 297.563 C 705.591 298.734,739.971 306.915,743.782 308.933 C 744.727 309.433,750.000 311.267,755.500 313.008 C 773.599 318.738,801.958 332.193,822.000 344.561 C 827.225 347.785,831.725 350.676,832.000 350.985 C 832.275 351.294,833.850 352.389,835.500 353.418 C 848.542 361.557,873.844 382.941,889.000 398.633 C 907.382 417.665,919.524 433.370,937.452 461.303 C 942.592 469.310,956.975 498.392,961.784 510.500 C 965.266 519.266,974.000 544.975,974.000 546.457 C 974.000 546.756,967.303 547.000,959.117 547.000 L 944.235 547.000 939.989 540.483 C 935.995 534.353,925.916 524.000,923.942 524.000 C 923.448 524.000,923.116 518.938,923.204 512.750 C 923.383 500.070,921.953 493.139,916.993 482.641 C 911.858 471.774,897.166 458.376,886.230 454.590 C 882.668 453.357,882.586 453.206,881.282 445.486 C 878.983 431.870,870.336 417.429,859.693 409.429 C 849.913 402.076,841.372 398.497,828.938 396.541 C 825.912 396.064,825.098 395.342,823.530 391.740 C 815.954 374.341,801.601 361.743,784.500 357.484 C 777.041 355.627,764.289 355.000,759.755 356.268 C 757.567 356.880,756.655 356.591,755.255 354.840 C 746.045 343.318,736.963 336.710,724.278 332.301 C 712.887 328.341,701.930 328.523,688.831 332.888 L 679.162 336.111 674.360 332.445 C 666.812 326.683,655.099 322.115,643.886 320.559 C 633.534 319.122,616.205 324.221,605.197 331.943 L 599.490 335.946 589.995 332.809 C 582.031 330.178,578.968 329.673,571.000 329.676 C 562.786 329.679,560.349 330.109,553.000 332.852 C 543.027 336.575,532.463 344.067,527.135 351.194 L 523.500 356.057 514.500 355.492 C 506.949 355.018,503.924 355.328,495.708 357.416 C 477.007 362.171,464.317 372.953,455.508 391.574 C 453.115 396.633,452.990 396.726,447.771 397.339 C 423.102 400.239,399.934 423.198,397.328 447.329 L 396.699 453.159 391.424 455.491 C 367.961 465.868,355.553 485.447,355.515 512.152 L 355.500 522.804 350.797 526.946 C 345.689 531.444,336.025 543.733,336.010 545.750 C 336.002 546.694,332.328 547.000,321.000 547.000 C 312.750 547.000,306.000 546.756,306.000 546.457 C 306.000 544.965,314.741 519.250,318.223 510.500 C 323.352 497.610,336.118 472.140,343.530 460.011 C 379.115 401.774,429.108 356.492,490.245 327.122 C 497.254 323.755,503.245 321.000,503.559 321.000 C 503.872 321.000,506.559 319.888,509.530 318.529 C 517.212 315.016,543.350 306.391,552.000 304.516 C 552.825 304.337,557.100 303.278,561.500 302.162 C 568.655 300.347,578.986 298.265,584.500 297.527 C 588.327 297.015,615.530 294.013,620.000 293.610 C 629.154 292.784,666.897 293.973,679.000 295.469 M656.358 328.196 C 665.093 331.063,675.469 337.000,673.985 338.282 C 673.718 338.513,669.675 341.110,665.000 344.053 C 660.325 346.997,652.611 352.657,647.857 356.632 L 639.215 363.858 636.905 361.399 C 635.635 360.047,633.989 359.174,633.246 359.459 C 632.504 359.744,632.145 359.575,632.449 359.082 C 633.330 357.656,618.874 346.394,609.250 341.010 C 606.913 339.702,605.000 338.299,605.000 337.893 C 605.000 337.487,607.587 335.529,610.750 333.543 C 623.785 325.358,641.417 323.291,656.358 328.196 M587.042 336.578 C 590.857 337.445,594.224 338.553,594.525 339.040 C 594.825 339.526,593.190 341.854,590.890 344.212 C 584.911 350.344,574.316 363.605,571.345 368.674 C 569.951 371.053,568.628 373.000,568.406 373.000 C 568.184 373.000,564.964 371.455,561.251 369.567 C 553.178 365.462,542.634 361.360,534.750 359.257 C 531.587 358.413,529.000 357.218,529.000 356.601 C 529.000 354.694,537.197 346.866,543.438 342.813 C 546.705 340.692,552.105 338.092,555.438 337.035 C 563.093 334.607,577.465 334.399,587.042 336.578 M721.500 336.359 C 726.976 337.822,734.582 341.439,736.759 343.616 C 737.520 344.377,738.473 345.000,738.876 345.000 C 740.120 345.000,750.952 356.269,750.465 357.057 C 750.213 357.465,747.642 358.364,744.753 359.055 C 738.467 360.559,724.701 365.974,716.791 370.055 C 713.651 371.675,710.881 373.000,710.636 373.000 C 710.391 373.000,709.010 370.986,707.568 368.526 C 704.419 363.152,694.642 350.873,688.394 344.445 C 685.908 341.886,684.159 339.502,684.507 339.147 C 684.855 338.791,687.921 337.756,691.320 336.847 C 698.948 334.806,714.731 334.551,721.500 336.359 M608.826 345.921 C 619.202 352.018,636.000 365.000,636.000 366.924 C 636.000 367.271,632.737 371.178,628.750 375.605 C 618.755 386.701,617.046 388.734,612.656 394.754 C 610.343 397.925,608.362 399.737,607.662 399.323 C 607.023 398.945,603.125 396.099,599.000 392.998 C 591.451 387.322,577.402 378.000,576.397 378.000 C 575.650 378.000,573.000 375.283,573.000 374.517 C 573.000 373.375,581.236 361.587,585.904 356.046 C 592.174 348.607,599.184 342.000,600.808 342.000 C 601.547 342.000,605.155 343.765,608.826 345.921 M686.190 348.250 C 695.150 357.647,707.214 374.192,705.947 375.346 C 705.701 375.570,699.875 379.490,693.000 384.056 C 686.125 388.623,678.450 394.047,675.945 396.109 C 673.440 398.172,670.941 399.553,670.392 399.180 C 669.843 398.806,668.082 396.700,666.479 394.500 C 662.736 389.365,659.344 385.343,650.588 375.663 C 646.690 371.353,643.374 367.488,643.220 367.073 C 642.329 364.674,673.817 342.285,678.365 342.083 C 679.420 342.036,682.819 344.714,686.190 348.250 M519.000 361.582 C 519.000 361.902,517.394 364.904,515.431 368.254 C 511.490 374.978,504.617 390.912,503.537 395.830 C 503.157 397.561,502.451 399.221,501.968 399.520 C 501.485 399.818,495.732 399.149,489.184 398.031 C 482.635 396.914,473.165 396.000,468.139 396.000 C 463.113 396.000,459.000 395.725,459.000 395.390 C 459.000 392.937,466.522 381.592,471.476 376.573 C 482.647 365.254,492.532 361.139,508.750 361.054 C 514.388 361.024,519.000 361.262,519.000 361.582 M784.160 362.436 C 797.319 366.429,809.042 375.559,815.701 387.000 C 821.180 396.412,821.333 395.999,812.357 396.006 C 805.500 396.011,798.041 396.866,781.267 399.568 C 777.662 400.149,776.942 399.972,776.419 398.375 C 773.875 390.604,766.933 374.327,763.798 368.781 C 761.709 365.085,760.000 361.823,760.000 361.531 C 760.000 360.363,779.769 361.103,784.160 362.436 M540.000 366.141 C 545.225 367.809,553.176 370.964,557.670 373.153 L 565.839 377.131 558.564 391.815 C 554.562 399.892,550.487 408.637,549.508 411.250 C 548.529 413.863,547.525 416.000,547.276 416.000 C 547.028 416.000,541.801 414.019,535.662 411.598 C 529.523 409.177,520.563 405.974,515.750 404.480 C 508.655 402.278,507.000 401.394,507.000 399.807 C 507.000 396.465,514.735 377.893,519.545 369.684 C 524.848 360.636,523.496 360.871,540.000 366.141 M760.191 371.500 C 765.217 381.011,772.000 397.500,772.000 400.207 C 772.000 401.378,768.948 402.776,760.750 405.358 C 754.563 407.308,745.675 410.450,741.000 412.341 C 731.667 416.117,730.809 415.981,728.980 410.438 C 728.362 408.568,726.314 403.867,724.429 399.992 C 722.543 396.117,721.000 392.720,721.000 392.443 C 721.000 392.166,719.200 388.762,717.000 384.880 C 714.800 380.997,713.000 377.682,713.000 377.512 C 713.000 376.845,725.674 370.655,730.934 368.752 C 741.389 364.971,751.498 362.070,753.467 362.285 C 754.837 362.435,756.878 365.232,760.191 371.500 M645.897 377.250 C 653.530 385.297,667.000 401.798,667.000 403.102 C 667.000 403.469,665.987 404.445,664.750 405.270 C 662.116 407.025,660.366 408.545,649.138 418.826 C 644.528 423.047,640.357 426.652,639.867 426.837 C 639.378 427.022,634.820 423.382,629.739 418.747 C 624.658 414.112,619.203 409.235,617.617 407.910 C 611.582 402.865,611.671 403.128,614.645 399.142 C 623.445 387.348,637.679 371.000,639.147 371.000 C 639.599 371.000,642.636 373.813,645.897 377.250 M580.141 386.139 C 587.451 390.934,598.227 398.575,604.965 403.740 C 605.220 403.936,604.995 404.687,604.465 405.409 C 603.934 406.132,599.303 413.023,594.174 420.724 L 584.848 434.725 569.516 426.977 C 561.083 422.715,553.627 419.042,552.948 418.816 C 551.967 418.489,551.968 417.588,552.953 414.452 C 554.725 408.813,568.930 380.000,569.939 380.000 C 570.402 380.000,574.993 382.763,580.141 386.139 M715.757 392.250 C 722.464 405.728,727.180 416.908,726.567 417.876 C 726.349 418.219,718.878 422.100,709.964 426.500 C 694.826 433.972,693.683 434.377,692.629 432.639 C 692.008 431.615,687.504 424.736,682.620 417.352 C 677.736 409.968,673.911 403.815,674.120 403.678 C 674.329 403.542,676.614 401.747,679.198 399.691 C 685.718 394.501,707.265 380.091,708.580 380.041 C 709.175 380.019,712.404 385.512,715.757 392.250 M481.026 402.024 C 492.769 403.443,500.000 405.117,500.000 406.416 C 500.000 407.020,498.899 412.460,497.553 418.507 C 496.207 424.553,494.600 433.325,493.982 438.000 C 493.364 442.675,492.552 446.770,492.179 447.100 C 491.805 447.431,486.775 447.128,481.000 446.427 C 475.225 445.726,465.914 445.118,460.309 445.076 C 454.704 445.034,449.892 444.635,449.617 444.189 C 448.106 441.744,452.702 411.529,455.692 404.250 L 457.027 401.000 464.790 401.000 C 469.059 401.000,476.366 401.461,481.026 402.024 M822.903 403.250 C 826.177 411.883,830.518 439.945,829.194 443.917 C 828.974 444.578,825.596 445.000,820.523 445.000 C 812.496 445.000,794.254 446.482,788.885 447.570 C 786.273 448.099,786.269 448.091,784.979 438.341 C 784.269 432.973,782.466 423.468,780.974 417.217 L 778.260 405.852 780.653 404.942 C 784.918 403.320,802.248 401.219,812.275 401.108 C 821.540 401.006,822.094 401.117,822.903 403.250 M450.654 404.250 C 448.450 412.805,445.919 427.361,445.269 435.211 L 444.500 444.500 435.000 445.141 C 424.624 445.840,415.126 447.362,407.772 449.503 C 405.171 450.260,402.847 450.562,402.607 450.173 C 401.713 448.727,404.119 439.345,406.877 433.522 C 412.552 421.542,420.476 413.328,432.000 407.479 C 437.844 404.512,444.966 402.237,448.867 402.089 C 450.841 402.015,451.137 402.373,450.654 404.250 M838.486 404.068 C 857.354 409.896,868.768 421.491,875.077 441.242 C 877.707 449.473,877.637 451.439,874.750 450.507 C 868.033 448.337,854.229 445.895,845.000 445.242 L 834.500 444.500 834.261 440.000 C 833.749 430.378,831.755 416.575,829.921 409.956 C 828.864 406.144,828.000 402.795,828.000 402.513 C 828.000 401.468,831.976 402.058,838.486 404.068 M507.452 406.923 C 507.766 407.431,509.480 408.146,511.261 408.512 C 518.803 410.062,545.000 420.102,545.000 421.442 C 545.000 421.663,543.620 425.817,541.934 430.672 C 540.248 435.527,537.775 443.061,536.438 447.413 C 535.102 451.765,533.859 455.474,533.678 455.656 C 533.496 455.838,525.338 454.302,515.548 452.243 L 497.749 448.500 498.296 441.500 C 499.187 430.090,504.476 406.000,506.089 406.000 C 506.525 406.000,507.139 406.415,507.452 406.923 M774.504 409.250 C 777.610 422.155,780.991 441.031,780.996 445.505 L 781.000 448.509 764.250 451.908 C 755.038 453.776,746.990 455.490,746.366 455.715 C 745.696 455.957,744.337 453.135,743.043 448.812 C 741.838 444.791,739.311 437.173,737.426 431.884 C 735.542 426.595,734.000 421.817,734.000 421.265 C 734.000 419.834,768.277 407.259,772.731 407.056 C 773.408 407.025,774.206 408.012,774.504 409.250 M617.587 414.500 C 628.949 424.424,635.000 430.237,635.000 431.227 C 635.000 432.159,618.888 449.459,615.986 451.643 C 614.763 452.564,612.134 451.339,602.483 445.355 C 595.893 441.268,590.368 437.336,590.207 436.617 C 589.932 435.396,596.002 425.440,604.489 413.193 C 606.511 410.274,608.740 408.024,609.442 408.193 C 610.143 408.362,613.809 411.200,617.587 414.500 M675.747 415.250 C 682.018 424.349,689.000 435.759,689.000 436.908 C 689.000 437.388,683.338 441.163,676.418 445.296 L 663.835 452.811 653.535 442.182 C 647.870 436.335,643.443 431.090,643.697 430.526 C 644.474 428.800,668.410 408.000,669.618 408.000 C 670.241 408.000,672.999 411.262,675.747 415.250 M568.000 431.559 C 584.161 439.783,583.368 437.620,575.463 451.919 C 571.733 458.665,568.057 464.425,567.294 464.718 C 566.135 465.162,541.039 458.671,538.779 457.342 C 538.383 457.109,538.901 454.574,539.930 451.709 C 540.959 448.844,543.246 442.000,545.013 436.500 C 549.566 422.323,549.227 422.781,553.756 424.662 C 555.815 425.517,562.225 428.621,568.000 431.559 M734.970 439.905 C 737.736 448.609,739.998 456.128,739.995 456.615 C 739.992 457.102,734.029 459.241,726.745 461.368 C 719.460 463.495,712.958 465.439,712.295 465.686 C 711.591 465.950,709.418 462.894,707.059 458.318 C 704.841 454.018,701.678 448.040,700.031 445.032 C 698.383 442.025,697.370 439.230,697.779 438.821 C 699.574 437.026,728.195 423.003,729.022 423.513 C 729.527 423.826,732.203 431.202,734.970 439.905 M658.978 455.584 C 658.990 456.179,655.513 458.994,651.250 461.837 C 646.987 464.681,642.600 467.657,641.500 468.450 C 639.660 469.777,638.738 469.373,630.000 463.410 C 624.775 459.845,620.351 456.498,620.170 455.973 C 619.988 455.448,620.438 454.394,621.170 453.631 C 621.901 452.868,626.300 448.333,630.945 443.554 L 639.391 434.865 649.174 444.682 C 654.555 450.082,658.967 454.988,658.978 455.584 M597.960 448.610 C 603.997 452.245,609.376 455.749,609.913 456.396 C 610.839 457.511,607.610 461.899,597.899 472.717 L 595.012 475.934 590.756 474.121 C 588.415 473.124,583.462 471.302,579.750 470.073 C 576.038 468.843,573.000 467.449,573.000 466.976 C 573.000 466.502,573.839 464.626,574.865 462.807 C 575.891 460.988,578.840 455.563,581.418 450.750 C 583.996 445.938,586.302 442.000,586.544 442.000 C 586.786 442.000,591.923 444.974,597.960 448.610 M699.652 454.556 C 703.127 461.125,705.976 466.783,705.985 467.128 C 706.003 467.885,685.569 475.039,683.766 474.907 C 682.433 474.810,667.995 458.682,668.006 457.302 C 668.010 456.861,669.247 455.755,670.756 454.844 C 672.265 453.933,677.550 450.688,682.500 447.633 C 687.450 444.578,691.913 442.199,692.417 442.345 C 692.922 442.492,696.177 447.986,699.652 454.556 M445.170 463.500 C 445.539 471.200,446.304 480.617,446.870 484.427 C 447.436 488.237,447.703 491.671,447.464 492.059 C 447.224 492.447,443.984 493.078,440.264 493.462 C 434.594 494.048,426.781 495.536,407.950 499.617 C 405.517 500.145,405.344 499.881,404.164 493.835 C 402.399 484.797,401.016 471.611,401.008 463.725 C 401.000 457.255,401.124 456.903,403.750 455.891 C 412.314 452.593,433.828 448.922,442.000 449.365 L 444.500 449.500 445.170 463.500 M472.000 450.522 C 476.675 450.835,483.120 451.585,486.322 452.190 C 491.504 453.168,492.089 453.520,491.639 455.394 C 491.361 456.552,490.816 464.813,490.428 473.750 L 489.722 490.000 482.111 490.044 C 477.925 490.068,469.775 490.479,464.000 490.958 C 458.225 491.436,453.373 491.702,453.219 491.549 C 451.949 490.292,449.107 454.699,449.876 449.689 C 449.944 449.244,453.038 449.121,456.750 449.416 C 460.462 449.712,467.325 450.209,472.000 450.522 M828.992 458.750 C 828.984 467.961,827.700 483.064,826.390 489.355 C 825.868 491.860,825.453 492.141,822.996 491.649 C 821.457 491.341,813.243 490.779,804.744 490.400 L 789.290 489.711 788.476 475.105 C 788.028 467.072,787.626 458.710,787.581 456.522 L 787.500 452.544 793.000 451.741 C 799.737 450.757,816.631 449.328,823.750 449.139 L 829.000 449.000 828.992 458.750 M856.000 451.101 C 859.575 451.646,866.054 453.039,870.397 454.195 L 878.295 456.299 877.647 469.899 C 877.015 483.177,874.840 497.560,873.221 499.179 C 872.776 499.624,867.707 498.927,861.956 497.630 C 856.205 496.334,847.450 494.716,842.500 494.037 C 837.550 493.357,833.034 492.672,832.465 492.514 C 831.759 492.319,831.814 488.930,832.638 481.864 C 833.303 476.164,833.882 466.738,833.924 460.917 C 833.966 455.096,834.296 450.037,834.659 449.674 C 835.419 448.914,846.528 449.657,856.000 451.101 M515.706 457.067 C 523.843 458.754,530.862 460.489,531.305 460.922 C 531.747 461.355,530.995 466.162,529.634 471.605 C 528.272 477.047,526.769 483.300,526.293 485.500 L 525.427 489.500 510.068 489.777 L 494.709 490.054 495.518 474.277 C 495.963 465.600,496.366 457.488,496.413 456.250 C 496.528 453.281,497.681 453.330,515.706 457.067 M782.437 460.250 C 782.765 463.688,783.138 471.675,783.267 478.000 L 783.500 489.500 768.250 489.776 C 754.044 490.033,753.000 489.927,753.000 488.224 C 753.000 487.219,751.621 480.846,749.935 474.063 C 748.249 467.280,747.237 461.369,747.685 460.927 C 748.633 459.993,775.221 454.218,779.170 454.088 C 781.728 454.004,781.866 454.263,782.437 460.250 M396.000 468.370 C 396.000 473.524,396.919 483.031,398.041 489.496 C 399.164 495.961,399.951 501.374,399.791 501.525 C 399.631 501.676,395.000 503.463,389.500 505.495 C 384.000 507.528,375.737 511.173,371.137 513.596 C 366.538 516.018,362.317 518.000,361.759 518.000 C 360.117 518.000,361.511 497.267,363.541 491.500 C 366.098 484.234,373.068 473.880,378.422 469.395 C 383.665 465.003,392.860 459.192,394.750 459.077 C 395.667 459.020,396.000 461.500,396.000 468.370 M890.555 462.032 C 901.717 468.418,911.404 479.677,915.293 490.785 C 916.661 494.693,917.440 500.085,917.757 507.837 L 918.221 519.173 910.861 515.138 C 903.185 510.930,886.497 503.754,881.750 502.619 C 878.589 501.864,878.568 501.700,880.553 493.000 C 881.369 489.425,882.320 480.313,882.666 472.750 C 883.028 464.867,883.715 459.000,884.277 459.000 C 884.816 459.000,887.641 460.364,890.555 462.032 M626.500 466.911 L 634.500 472.497 624.500 473.654 C 619.000 474.290,612.076 475.303,609.114 475.905 C 600.470 477.662,600.303 477.451,605.621 471.500 C 614.579 461.477,616.179 459.990,617.310 460.641 C 617.965 461.017,622.100 463.839,626.500 466.911 M664.326 461.250 C 669.764 466.994,677.184 476.150,676.751 476.583 C 676.456 476.877,672.679 476.456,668.358 475.648 C 664.036 474.839,656.933 473.852,652.574 473.455 L 644.648 472.732 647.487 470.616 C 651.956 467.285,662.466 460.013,662.821 460.006 C 662.998 460.003,663.675 460.563,664.326 461.250 M554.800 467.131 C 560.135 468.832,564.617 470.328,564.761 470.455 C 564.904 470.583,562.991 474.973,560.511 480.210 C 558.030 485.447,556.000 490.309,556.000 491.016 C 556.000 492.029,553.432 492.155,543.845 491.613 C 537.159 491.235,531.357 490.720,530.950 490.469 C 530.315 490.077,531.945 482.570,536.126 466.633 C 537.131 462.800,537.174 462.772,541.120 463.403 C 543.309 463.753,549.465 465.431,554.800 467.131 M742.013 463.250 C 742.020 463.387,743.370 468.873,745.013 475.439 C 746.656 482.006,748.000 488.113,748.000 489.011 C 748.000 490.374,746.077 490.796,736.319 491.572 C 727.005 492.312,724.371 492.232,723.319 491.179 C 722.594 490.452,722.000 489.403,722.000 488.848 C 722.000 488.292,720.486 484.821,718.636 481.135 C 713.074 470.052,713.042 470.426,719.709 468.446 C 734.230 464.132,741.966 462.330,742.013 463.250 M581.797 476.004 C 586.910 477.820,590.735 479.618,590.297 479.998 C 589.858 480.378,586.575 481.737,583.000 483.017 C 579.425 484.298,573.193 486.873,569.151 488.741 C 565.109 490.608,561.617 491.950,561.391 491.724 C 560.523 490.856,570.241 471.878,571.347 472.280 C 571.981 472.511,576.683 474.187,581.797 476.004 M713.755 482.181 C 716.096 487.209,717.792 491.541,717.525 491.808 C 717.258 492.075,714.218 490.927,710.770 489.257 C 707.321 487.587,701.013 484.944,696.750 483.384 C 692.487 481.824,689.000 480.302,689.000 480.001 C 689.000 479.194,705.170 473.155,707.500 473.093 C 709.061 473.051,710.433 475.044,713.755 482.181 M655.000 479.442 C 663.644 480.020,682.323 483.644,686.000 485.456 C 687.375 486.134,690.750 487.273,693.500 487.987 C 700.508 489.806,718.674 499.049,730.335 506.729 C 740.975 513.736,762.167 533.832,767.730 542.190 C 771.229 547.447,773.650 551.053,776.707 555.564 C 784.497 567.054,793.218 589.364,797.108 607.749 C 799.679 619.903,800.691 644.861,799.126 657.498 C 791.250 721.090,748.620 773.031,688.500 792.284 C 668.983 798.535,662.739 799.471,640.500 799.486 C 617.442 799.502,608.876 798.226,589.188 791.845 C 553.664 780.330,522.098 755.213,501.923 722.407 C 493.073 708.016,484.870 686.924,481.321 669.435 C 479.900 662.436,479.516 655.951,479.548 639.500 C 479.593 615.880,480.951 607.120,487.659 587.178 C 498.557 554.783,523.613 522.461,551.500 504.825 C 576.255 489.170,600.837 480.848,627.500 479.096 C 633.550 478.698,640.525 478.500,643.000 478.657 C 645.475 478.813,650.875 479.166,655.000 479.442 M490.000 508.418 C 490.000 515.798,490.263 522.521,490.584 523.357 C 491.014 524.478,490.158 525.123,487.334 525.809 C 485.225 526.322,478.604 527.941,472.620 529.407 C 466.636 530.874,461.627 531.944,461.488 531.787 C 460.306 530.443,453.649 498.018,454.401 497.266 C 455.145 496.521,470.205 495.333,481.250 495.147 L 490.000 495.000 490.000 508.418 M523.480 496.250 C 523.710 496.938,522.908 502.433,521.699 508.462 L 519.500 519.425 508.226 521.355 C 502.026 522.417,496.661 522.994,496.304 522.637 C 495.946 522.280,495.448 515.915,495.197 508.494 L 494.739 495.000 508.901 495.000 C 519.341 495.000,523.172 495.328,523.480 496.250 M783.914 509.031 C 783.801 516.748,783.437 523.222,783.104 523.417 C 782.772 523.612,777.342 522.797,771.038 521.606 L 759.575 519.441 757.334 508.471 C 756.102 502.437,755.072 497.195,755.047 496.823 C 754.962 495.591,758.368 495.233,771.310 495.116 L 784.120 495.000 783.914 509.031 M814.252 495.883 C 819.615 496.316,824.233 496.900,824.514 497.181 C 825.111 497.778,822.967 509.575,819.863 522.767 C 818.117 530.189,817.366 531.943,816.091 531.574 C 815.216 531.322,809.325 529.921,803.000 528.462 C 789.777 525.411,788.469 524.883,788.583 522.641 C 788.629 521.738,788.742 515.150,788.833 508.000 L 789.000 495.000 796.750 495.049 C 801.013 495.075,808.888 495.451,814.252 495.883 M550.232 497.905 C 550.634 498.267,547.034 501.342,542.232 504.738 C 537.429 508.134,531.743 512.620,529.595 514.706 L 525.691 518.500 526.379 513.000 C 526.757 509.975,527.564 504.896,528.171 501.714 L 529.275 495.927 539.387 496.587 C 544.949 496.950,549.829 497.543,550.232 497.905 M750.438 499.250 C 750.729 501.038,751.425 505.170,751.984 508.434 C 753.173 515.375,753.271 518.918,752.235 517.481 C 750.932 515.674,735.621 503.443,731.677 501.058 C 729.574 499.787,728.224 498.379,728.677 497.930 C 729.459 497.156,734.761 496.596,745.205 496.185 C 749.786 496.005,749.923 496.085,750.438 499.250 M455.572 531.000 C 456.096 533.433,455.661 533.648,439.416 539.000 C 430.234 542.025,422.249 544.500,421.671 544.500 C 421.093 544.500,419.557 541.800,418.259 538.500 C 415.869 532.429,407.000 506.503,407.000 505.589 C 407.000 504.437,435.837 498.510,445.000 497.779 L 448.500 497.500 451.767 513.000 C 453.563 521.525,455.276 529.625,455.572 531.000 M845.000 499.412 C 857.469 501.410,870.382 504.146,871.311 504.987 C 872.705 506.250,859.277 544.500,857.440 544.500 C 856.923 544.500,848.948 542.025,839.718 539.000 C 824.658 534.065,822.987 533.295,823.443 531.500 C 823.722 530.400,825.389 522.228,827.148 513.341 L 830.346 497.182 833.423 497.616 C 835.115 497.855,840.325 498.663,845.000 499.412 M405.480 518.000 C 407.253 523.775,410.164 532.100,411.950 536.500 C 413.736 540.900,415.428 545.066,415.709 545.758 C 416.024 546.534,414.362 547.824,411.360 549.131 C 408.687 550.295,404.669 552.065,402.432 553.065 C 398.420 554.859,398.276 554.852,391.932 552.564 C 388.394 551.288,382.125 549.673,378.000 548.975 C 373.875 548.277,369.986 547.209,369.358 546.603 C 367.854 545.151,363.000 529.425,363.000 526.005 C 363.000 523.707,364.085 522.734,370.750 519.053 C 380.821 513.491,396.849 507.017,399.878 507.288 C 401.985 507.476,402.626 508.702,405.480 518.000 M893.705 512.035 C 903.146 515.964,914.986 522.400,916.129 524.224 C 916.780 525.261,915.712 529.747,912.122 541.051 L 910.042 547.603 902.294 548.905 C 898.033 549.621,891.549 551.288,887.887 552.609 L 881.227 555.011 872.610 551.404 C 867.870 549.420,863.807 547.496,863.579 547.128 C 863.352 546.761,864.923 542.012,867.070 536.576 C 869.217 531.139,872.127 522.823,873.537 518.095 C 874.947 513.368,876.307 508.888,876.561 508.141 C 877.224 506.183,882.551 507.393,893.705 512.035 M517.968 525.750 C 517.951 526.163,516.352 528.075,514.416 530.000 C 512.480 531.925,508.107 537.453,504.698 542.284 L 498.500 551.068 497.842 546.284 C 497.479 543.653,497.002 538.702,496.780 535.282 L 496.377 529.064 501.438 528.077 C 504.222 527.534,508.525 526.668,511.000 526.152 C 516.931 524.916,518.006 524.854,517.968 525.750 M775.444 527.639 C 779.263 528.417,782.500 529.167,782.638 529.304 C 782.989 529.655,781.003 550.331,780.577 550.756 C 780.385 550.948,779.188 549.394,777.917 547.303 C 776.646 545.211,775.356 543.275,775.050 543.000 C 774.745 542.725,772.605 540.011,770.294 536.968 C 767.984 533.926,764.947 530.360,763.547 529.044 C 758.717 524.506,759.570 524.406,775.444 527.639 M358.570 531.750 C 359.136 534.312,361.706 542.915,362.753 545.750 C 363.104 546.703,360.562 547.000,352.059 547.000 L 340.904 547.000 344.094 542.250 C 348.115 536.261,355.018 529.000,356.689 529.000 C 357.389 529.000,358.235 530.237,358.570 531.750 M928.936 534.621 C 933.258 539.349,936.173 543.547,937.270 546.623 C 937.480 547.210,916.877 547.211,916.291 546.624 C 915.564 545.898,921.650 529.000,922.637 529.000 C 923.276 529.000,926.111 531.529,928.936 534.621 M491.761 542.500 C 492.432 550.330,492.386 553.834,491.602 554.659 C 489.958 556.388,471.086 564.959,470.647 564.176 C 468.751 560.794,462.539 538.127,463.300 537.367 C 464.360 536.306,489.491 530.225,490.159 530.867 C 490.522 531.215,491.243 536.450,491.761 542.500 M803.810 533.900 C 810.030 535.488,815.390 537.057,815.721 537.388 C 816.282 537.948,811.435 556.177,809.126 562.194 L 808.092 564.888 797.012 559.739 C 786.642 554.920,785.962 554.426,786.413 552.045 C 786.679 550.645,787.192 545.337,787.554 540.250 C 788.336 529.258,787.261 529.678,803.810 533.900 M461.691 553.013 C 464.455 562.740,465.341 567.277,464.587 567.846 C 460.661 570.806,440.734 581.112,439.703 580.716 C 438.306 580.180,424.000 552.608,424.000 550.451 C 424.000 549.178,452.210 539.156,456.105 539.046 C 457.322 539.011,458.672 542.387,461.691 553.013 M839.250 544.117 C 848.967 547.279,855.000 549.744,855.000 550.553 C 855.000 552.619,840.747 580.160,839.414 580.672 C 838.504 581.021,814.899 569.164,813.165 567.488 C 812.981 567.310,813.926 563.865,815.264 559.832 C 816.603 555.799,818.508 549.462,819.497 545.750 C 820.487 542.038,821.793 538.998,822.398 538.996 C 823.004 538.993,830.587 541.298,839.250 544.117 M419.545 554.250 C 419.919 555.487,422.424 560.928,425.113 566.341 C 427.801 571.753,430.000 576.386,430.000 576.637 C 430.000 576.888,426.918 574.441,423.150 571.198 C 415.251 564.399,407.654 559.000,405.986 559.000 C 403.235 559.000,406.082 556.385,411.073 554.329 C 417.933 551.503,418.713 551.495,419.545 554.250 M868.125 554.637 C 871.356 556.087,873.996 557.549,873.991 557.887 C 873.986 558.224,871.177 560.300,867.748 562.500 C 864.319 564.700,858.264 569.579,854.293 573.342 L 847.073 580.185 853.786 566.099 C 857.479 558.352,860.894 552.011,861.375 552.007 C 861.856 552.003,864.894 553.186,868.125 554.637 M492.000 561.375 C 492.000 561.581,490.497 565.069,488.660 569.125 C 486.823 573.181,484.240 579.538,482.919 583.250 C 481.598 586.962,480.267 590.000,479.959 590.000 C 479.210 590.000,472.411 570.211,473.021 569.807 C 474.426 568.878,490.613 561.109,491.250 561.059 C 491.663 561.027,492.000 561.169,492.000 561.375 M796.771 565.184 C 801.572 567.485,805.715 569.538,805.979 569.746 C 806.632 570.262,799.768 590.000,798.934 590.000 C 798.569 590.000,797.251 586.962,796.005 583.250 C 794.759 579.538,792.223 573.474,790.370 569.775 C 787.146 563.342,786.386 561.000,787.521 561.000 C 787.807 561.000,791.969 562.883,796.771 565.184 M591.965 573.934 C 593.161 576.169,593.323 677.046,592.149 688.750 L 591.423 696.000 603.246 696.000 C 614.715 696.000,615.039 695.941,614.012 694.023 C 613.293 692.679,613.042 672.828,613.227 632.023 L 613.500 572.000 602.215 572.000 C 591.367 572.000,590.970 572.075,591.965 573.934 M645.555 573.283 C 645.826 573.989,644.052 584.452,641.612 596.533 C 639.172 608.615,633.983 634.700,630.079 654.500 C 626.176 674.300,622.332 691.737,621.538 693.250 L 620.093 696.000 632.084 696.000 C 643.930 696.000,644.073 695.973,643.817 693.750 C 643.402 690.153,645.066 681.187,646.337 680.167 C 649.028 678.006,665.146 669.813,665.672 670.339 C 666.607 671.274,669.918 688.187,669.961 692.250 L 670.000 696.000 681.953 696.000 L 693.907 696.000 692.438 693.250 C 691.110 690.765,669.254 584.716,668.222 575.750 L 667.790 572.000 656.426 572.000 C 647.589 572.000,645.172 572.285,645.555 573.283 M471.439 583.525 C 473.480 589.313,474.991 594.527,474.797 595.110 C 474.602 595.694,470.631 599.494,465.971 603.554 L 457.500 610.937 455.625 608.411 C 452.083 603.641,443.000 588.053,443.000 586.746 C 443.000 586.027,444.238 584.896,445.750 584.234 C 447.262 583.571,452.325 580.818,457.000 578.115 C 461.675 575.413,466.001 573.157,466.614 573.101 C 467.226 573.045,469.397 577.736,471.439 583.525 M824.749 579.500 C 830.936 582.800,835.999 586.037,835.999 586.693 C 836.000 588.128,833.332 592.879,826.711 603.231 C 821.815 610.885,821.745 610.944,819.571 609.231 C 817.038 607.233,806.403 598.100,804.460 596.252 C 803.380 595.226,803.548 593.981,805.404 589.244 C 806.646 586.076,807.966 582.270,808.339 580.786 C 809.666 575.500,811.024 572.859,812.253 573.177 C 812.939 573.355,818.562 576.200,824.749 579.500 M475.530 611.082 C 474.723 615.712,473.711 622.739,473.281 626.697 L 472.500 633.894 467.095 626.197 C 464.123 621.964,461.495 617.760,461.256 616.856 C 460.966 615.756,463.390 613.020,468.571 608.599 C 472.833 604.962,476.473 602.139,476.659 602.326 C 476.845 602.512,476.337 606.452,475.530 611.082 M807.500 605.621 C 809.700 607.587,813.171 610.729,815.212 612.603 L 818.925 616.011 815.768 620.756 C 814.032 623.365,811.170 627.417,809.408 629.760 L 806.205 634.019 805.534 626.760 C 805.165 622.767,804.219 615.963,803.432 611.640 C 801.331 600.106,801.330 600.107,807.500 605.621 M829.800 612.301 C 828.695 615.902,827.644 616.850,826.611 615.179 C 826.058 614.285,829.846 607.513,830.521 608.188 C 830.749 608.416,830.424 610.266,829.800 612.301 M452.399 615.164 C 451.507 616.606,449.998 615.030,450.032 612.691 C 450.063 610.572,450.111 610.562,451.500 612.397 C 452.290 613.441,452.694 614.686,452.399 615.164 M463.311 629.870 L 469.696 639.240 463.319 648.579 C 459.811 653.715,456.536 658.169,456.040 658.475 C 454.127 659.658,453.653 656.057,453.550 639.568 C 453.451 623.770,454.018 619.487,456.114 620.217 C 456.561 620.373,459.800 624.716,463.311 629.870 M825.046 621.555 C 825.990 622.693,826.324 627.546,826.289 639.627 C 826.246 654.784,826.083 656.254,824.310 657.496 C 822.519 658.750,821.897 658.134,815.784 649.056 L 809.189 639.263 815.793 629.631 C 819.425 624.334,822.702 620.000,823.076 620.000 C 823.449 620.000,824.336 620.700,825.046 621.555 M65.224 637.201 L 65.500 652.402 68.250 652.301 C 69.763 652.245,72.125 652.155,73.500 652.100 L 76.000 652.000 76.000 637.000 L 76.000 622.000 70.474 622.000 L 64.948 622.000 65.224 637.201 M1204.000 637.000 L 1204.000 652.000 1209.500 652.000 L 1215.000 652.000 1215.000 637.000 L 1215.000 622.000 1209.500 622.000 L 1204.000 622.000 1204.000 637.000 M659.955 638.289 C 661.181 644.223,661.973 649.628,661.715 650.300 C 661.138 651.804,652.093 656.427,651.293 655.627 C 650.975 655.309,651.990 648.508,653.548 640.515 C 655.106 632.521,656.684 626.323,657.053 626.741 C 657.423 627.158,658.728 632.355,659.955 638.289 M476.054 670.760 C 476.670 673.729,476.921 676.412,476.612 676.722 C 476.302 677.031,473.505 675.083,470.397 672.392 C 467.288 669.702,463.564 666.518,462.122 665.317 C 460.173 663.695,459.757 662.770,460.500 661.716 C 461.050 660.936,463.975 656.822,467.000 652.574 L 472.500 644.850 473.717 655.106 C 474.386 660.747,475.438 667.791,476.054 670.760 M812.878 653.754 C 815.695 657.743,818.000 661.639,818.000 662.410 C 818.000 663.182,815.638 665.768,812.750 668.156 C 809.862 670.545,806.397 673.496,805.048 674.714 C 803.700 675.933,802.469 676.802,802.313 676.646 C 802.157 676.490,802.653 672.794,803.415 668.431 C 804.177 664.069,805.126 656.979,805.525 652.675 C 805.923 648.371,806.588 645.221,807.003 645.675 C 807.417 646.129,810.061 649.764,812.878 653.754 M829.538 666.250 C 829.911 667.763,829.955 669.000,829.634 669.000 C 828.642 669.000,826.042 663.292,826.723 662.610 C 827.657 661.676,828.760 663.102,829.538 666.250 M452.362 664.500 C 452.045 665.325,451.609 666.000,451.393 666.000 C 451.177 666.000,451.000 665.325,451.000 664.500 C 451.000 663.675,451.436 663.000,451.969 663.000 C 452.501 663.000,452.678 663.675,452.362 664.500 M465.887 674.689 C 470.074 678.368,473.921 681.736,474.435 682.173 C 475.608 683.173,468.986 704.055,467.286 704.715 C 465.767 705.305,443.000 693.057,443.000 691.649 C 443.000 689.607,456.417 668.000,457.685 668.000 C 458.009 668.000,461.700 671.010,465.887 674.689 M826.581 675.231 C 829.154 679.208,832.438 684.585,833.879 687.179 C 836.480 691.860,836.484 691.908,834.500 693.394 C 832.974 694.536,815.546 704.094,811.908 705.784 C 811.056 706.179,803.785 685.292,804.179 683.584 C 804.497 682.204,819.855 668.209,821.202 668.072 C 821.587 668.032,824.008 671.254,826.581 675.231 M66.498 686.750 C 71.920 756.792,92.572 831.617,123.922 894.802 C 144.398 936.072,172.956 979.345,202.585 1014.000 C 223.105 1038.000,256.233 1069.782,283.000 1091.148 C 295.418 1101.060,315.160 1115.000,316.779 1115.000 C 317.470 1115.000,322.000 1107.619,322.000 1106.495 C 322.000 1106.321,315.074 1101.155,306.608 1095.015 C 298.143 1088.875,290.376 1083.097,289.348 1082.175 C 288.320 1081.254,285.236 1078.700,282.493 1076.500 C 259.456 1058.017,231.715 1031.056,212.015 1008.000 C 210.840 1006.625,209.110 1004.600,208.170 1003.500 C 149.179 934.442,105.780 845.154,87.535 755.307 C 83.696 736.403,79.741 709.798,77.938 690.750 L 76.732 678.000 71.276 678.000 L 65.820 678.000 66.498 686.750 M1202.608 680.250 C 1202.372 681.487,1201.652 688.575,1201.010 696.000 C 1191.831 802.067,1147.057 910.687,1077.142 996.500 C 1044.344 1036.755,1002.446 1075.168,958.235 1105.514 C 957.835 1105.789,963.098 1115.000,963.656 1115.000 C 965.348 1115.000,999.349 1089.517,1010.488 1079.900 C 1050.567 1045.298,1085.398 1007.493,1109.898 972.000 C 1141.834 925.734,1162.655 885.939,1180.380 837.290 C 1198.585 787.324,1208.438 742.161,1213.552 685.250 L 1214.203 678.000 1208.621 678.000 C 1203.625 678.000,1202.993 678.237,1202.608 680.250 M482.975 696.000 C 484.239 699.575,486.817 705.807,488.704 709.849 C 490.592 713.891,491.950 717.383,491.724 717.609 C 491.343 717.990,472.000 709.179,472.000 708.624 C 472.000 708.247,477.680 691.762,478.526 689.683 C 479.514 687.254,480.254 688.304,482.975 696.000 M802.971 698.566 C 804.826 703.947,805.882 708.474,805.384 708.914 C 803.889 710.238,788.015 717.348,787.563 716.897 C 787.330 716.663,788.645 713.328,790.485 709.486 C 792.326 705.644,794.872 699.462,796.143 695.750 C 797.414 692.038,798.728 689.000,799.064 689.000 C 799.399 689.000,801.157 693.305,802.971 698.566 M446.000 700.319 C 449.025 702.142,454.708 705.318,458.630 707.377 L 465.760 711.122 462.975 720.080 C 461.443 725.007,459.652 731.281,458.995 734.022 C 458.337 736.763,457.507 739.184,457.150 739.402 C 456.352 739.889,425.423 729.756,424.311 728.644 C 423.506 727.840,438.659 696.998,439.856 697.003 C 440.210 697.004,442.975 698.496,446.000 700.319 M847.810 712.790 C 851.865 720.650,854.964 727.650,854.697 728.348 C 854.314 729.344,835.532 736.004,823.489 739.414 C 821.669 739.929,821.109 738.720,817.617 726.742 C 815.494 719.459,813.566 712.987,813.332 712.361 C 813.097 711.730,817.723 708.683,823.704 705.529 C 829.642 702.397,834.945 699.405,835.488 698.879 C 838.304 696.156,840.515 698.652,847.810 712.790 M854.054 706.612 C 855.949 708.599,861.067 712.742,865.428 715.820 L 873.355 721.415 868.428 723.695 C 865.717 724.949,862.825 725.974,862.000 725.973 C 861.079 725.972,858.339 721.535,854.903 714.485 C 851.825 708.168,849.599 703.000,849.957 703.000 C 850.315 703.000,852.158 704.625,854.054 706.612 M423.855 714.750 C 421.097 720.663,418.526 725.828,418.141 726.229 C 417.756 726.630,414.807 725.719,411.588 724.205 L 405.734 721.451 412.117 717.290 C 415.628 715.002,420.750 711.096,423.500 708.610 C 426.250 706.124,428.583 704.069,428.685 704.045 C 428.786 704.020,426.613 708.837,423.855 714.750 M482.187 719.043 C 487.859 721.817,492.478 724.405,492.450 724.793 C 491.299 741.221,490.627 748.000,490.151 748.000 C 489.175 748.000,463.528 741.769,463.151 741.440 C 462.355 740.746,470.407 714.000,471.412 714.000 C 471.666 714.000,476.515 716.270,482.187 719.043 M809.115 716.750 C 810.560 720.479,815.986 739.243,815.994 740.537 C 816.000 741.516,789.297 748.645,788.545 747.865 C 788.351 747.664,787.892 742.100,787.524 735.500 L 786.856 723.500 796.678 718.837 C 802.080 716.273,806.849 714.136,807.275 714.087 C 807.701 714.039,808.529 715.237,809.115 716.750 M901.416 730.875 L 910.474 732.705 913.218 741.103 C 917.452 754.064,917.334 754.362,905.527 760.617 C 900.042 763.522,892.392 767.001,888.527 768.348 C 876.189 772.647,877.681 773.243,874.552 762.767 C 873.030 757.670,870.017 749.024,867.857 743.554 C 865.696 738.084,864.057 732.989,864.214 732.233 C 864.371 731.477,867.875 729.368,872.000 727.546 L 879.500 724.234 885.929 726.639 C 889.465 727.962,896.434 729.868,901.416 730.875 M409.000 728.515 C 412.575 730.013,415.669 731.392,415.876 731.579 C 416.082 731.765,414.197 736.999,411.686 743.209 C 409.175 749.419,406.010 758.325,404.652 763.000 C 402.251 771.265,402.104 771.491,399.341 771.186 C 390.779 770.239,363.000 756.404,363.000 753.086 C 363.000 751.121,365.411 742.444,367.617 736.467 C 369.104 732.439,369.115 732.433,376.509 731.256 C 380.580 730.608,386.969 728.962,390.706 727.599 C 398.550 724.735,400.176 724.817,409.000 728.515 M501.109 731.750 C 502.358 733.813,506.482 739.313,510.272 743.973 C 514.062 748.633,516.646 752.618,516.014 752.829 C 515.382 753.039,510.620 752.448,505.432 751.513 L 496.000 749.815 496.000 746.558 C 496.000 739.869,497.321 728.000,498.065 728.000 C 498.490 728.000,499.859 729.688,501.109 731.750 M782.076 743.000 L 782.361 749.500 774.930 751.154 C 770.844 752.064,765.944 752.852,764.042 752.904 L 760.584 753.000 764.599 748.750 C 769.656 743.398,774.905 736.667,778.054 731.500 L 780.491 727.500 781.141 732.000 C 781.499 734.475,781.919 739.425,782.076 743.000 M334.575 732.765 C 335.166 733.169,337.492 736.234,339.744 739.575 C 341.995 742.917,346.461 748.049,349.669 750.980 L 355.500 756.309 355.623 767.905 C 355.771 781.843,358.677 792.293,365.066 801.862 C 371.301 811.198,384.442 821.815,393.116 824.525 C 396.080 825.451,396.965 826.749,396.985 830.198 C 397.013 835.165,401.936 848.590,406.079 855.001 C 415.008 868.815,429.138 878.382,445.500 881.688 L 453.500 883.305 457.204 890.902 C 463.971 904.781,475.046 914.901,489.352 920.276 C 496.748 923.054,498.654 923.348,510.008 923.455 L 522.515 923.572 530.508 931.640 C 548.105 949.405,568.694 954.101,593.105 945.918 L 599.710 943.704 604.105 946.718 C 614.751 954.017,629.146 959.018,639.410 958.983 C 650.828 958.944,666.716 953.561,675.164 946.870 L 679.203 943.672 685.851 945.787 C 705.820 952.141,721.427 950.945,736.619 941.899 C 742.424 938.442,756.000 925.924,756.000 924.029 C 756.000 923.340,758.815 923.205,764.321 923.628 C 790.350 925.629,812.675 912.427,823.593 888.577 L 826.047 883.218 832.610 881.979 C 845.782 879.494,856.226 873.995,865.600 864.609 C 874.046 856.153,879.195 846.392,881.639 834.205 L 883.248 826.181 890.874 822.434 C 900.752 817.581,913.202 805.440,917.769 796.208 C 922.277 787.097,924.328 776.743,923.803 765.753 L 923.368 756.669 930.934 749.429 C 935.095 745.447,939.850 739.906,941.500 737.114 L 944.500 732.040 958.691 732.020 C 966.496 732.009,973.112 732.373,973.394 732.828 C 973.675 733.283,972.083 739.246,969.855 746.078 C 952.022 800.776,922.665 847.881,881.374 888.052 C 855.077 913.636,831.455 930.614,798.500 947.616 C 761.824 966.539,724.976 977.992,682.500 983.671 C 663.607 986.197,616.631 986.196,598.000 983.669 C 517.116 972.697,447.821 938.452,392.952 882.334 C 378.295 867.344,373.202 861.442,362.069 846.543 C 346.255 825.381,329.437 796.364,322.017 777.439 C 320.305 773.073,318.172 767.925,317.278 766.000 C 314.643 760.328,306.088 733.666,306.625 732.797 C 307.244 731.797,333.114 731.767,334.575 732.765 M362.134 734.000 C 361.073 738.347,357.719 749.559,357.366 749.938 C 356.721 750.629,348.115 741.923,344.950 737.377 C 343.371 735.110,342.376 732.957,342.740 732.593 C 343.103 732.230,347.698 732.060,352.950 732.216 C 360.844 732.451,362.437 732.760,362.134 734.000 M936.990 733.210 C 936.972 735.665,924.127 749.996,921.942 749.999 C 921.469 750.000,920.226 745.769,917.350 734.368 C 916.829 732.306,917.138 732.232,926.906 732.078 C 934.569 731.958,936.998 732.230,936.990 733.210 M440.000 740.073 C 448.525 742.949,455.628 745.400,455.785 745.520 C 455.942 745.639,454.968 750.409,453.620 756.118 C 452.273 761.828,450.601 769.811,449.906 773.859 L 448.641 781.218 442.570 780.557 C 436.873 779.937,413.597 775.569,409.750 774.398 C 408.788 774.105,408.000 773.016,408.000 771.979 C 408.000 769.062,412.915 754.480,419.913 736.638 C 420.712 734.602,421.535 733.930,422.768 734.310 C 423.721 734.604,431.475 737.197,440.000 740.073 M860.021 738.750 C 863.024 745.497,872.281 773.053,871.729 773.604 C 870.937 774.396,843.829 779.711,836.853 780.441 L 830.207 781.137 829.490 775.929 C 829.096 773.064,827.501 765.045,825.945 758.110 C 823.874 748.881,823.436 745.382,824.308 745.059 C 827.689 743.808,856.600 734.168,857.203 734.090 C 857.590 734.041,858.858 736.138,860.021 738.750 M474.439 750.013 C 481.006 751.656,487.193 753.000,488.189 753.000 C 489.860 753.000,490.000 754.210,490.000 768.618 L 490.000 784.237 481.750 783.640 C 477.212 783.312,469.102 782.754,463.727 782.401 L 453.955 781.759 454.582 778.129 C 455.094 775.166,458.402 759.622,460.729 749.250 C 461.006 748.013,461.518 747.006,461.867 747.013 C 462.215 747.020,467.873 748.370,474.439 750.013 M819.843 755.750 C 823.030 769.620,825.204 781.129,824.728 781.606 C 824.161 782.173,790.739 783.750,789.750 783.256 C 789.337 783.050,789.000 776.159,789.000 767.941 C 789.000 754.390,789.163 752.997,790.750 752.968 C 791.712 752.951,797.675 751.643,804.000 750.062 C 810.325 748.482,816.025 747.146,816.667 747.094 C 817.337 747.040,818.688 750.722,819.843 755.750 M509.975 757.594 L 519.546 759.269 521.634 770.884 C 522.783 777.273,523.672 782.575,523.611 782.667 C 523.549 782.759,517.087 783.160,509.250 783.557 L 495.000 784.281 495.007 776.390 C 495.011 772.051,495.304 765.428,495.659 761.673 C 496.249 755.422,496.477 754.891,498.354 755.382 C 499.481 755.677,504.711 756.672,509.975 757.594 M783.488 763.250 C 783.854 767.788,784.007 774.200,783.827 777.500 L 783.500 783.500 769.505 783.172 C 761.808 782.992,755.443 782.767,755.360 782.672 C 754.965 782.221,759.332 760.401,759.954 759.717 C 760.608 758.997,777.336 755.363,781.160 755.110 C 782.533 755.019,782.936 756.431,783.488 763.250 M373.620 766.371 C 379.604 769.326,388.029 773.001,392.342 774.539 C 400.155 777.325,400.181 777.346,399.560 780.417 C 397.081 792.678,396.000 801.547,396.000 809.631 C 396.000 816.549,395.667 819.000,394.727 819.000 C 391.895 819.000,380.436 811.150,375.515 805.839 C 368.743 798.530,365.282 792.282,362.911 783.090 C 360.970 775.562,360.283 761.000,361.870 761.000 C 362.348 761.000,367.635 763.417,373.620 766.371 M531.353 765.648 C 534.184 768.204,539.772 772.578,543.772 775.368 C 552.213 781.256,552.124 781.370,538.301 782.387 L 529.103 783.064 528.439 779.282 C 528.074 777.202,527.151 772.433,526.388 768.685 C 525.624 764.936,525.000 761.674,525.000 761.435 C 525.000 760.299,526.616 761.371,531.353 765.648 M751.399 772.406 L 749.603 782.950 740.552 782.328 C 727.781 781.449,726.728 780.938,731.602 777.981 C 736.022 775.298,748.875 765.061,750.928 762.587 C 751.674 761.688,752.490 761.156,752.740 761.407 C 752.990 761.657,752.387 766.606,751.399 772.406 M917.985 768.250 C 917.953 783.946,913.075 796.153,902.683 806.539 C 896.504 812.715,887.156 819.000,884.150 819.000 C 883.646 819.000,883.163 814.518,883.077 809.041 C 882.941 800.370,881.853 791.743,879.467 780.419 L 878.818 777.339 887.660 774.176 C 892.524 772.436,900.777 768.810,906.001 766.118 C 911.226 763.426,916.063 761.173,916.750 761.112 C 917.647 761.032,917.996 763.050,917.985 768.250 M418.507 781.431 C 424.553 782.768,433.100 784.383,437.500 785.020 C 441.900 785.656,445.966 786.311,446.535 786.475 C 447.241 786.678,447.186 790.069,446.362 797.136 C 445.697 802.836,445.118 812.405,445.076 818.400 L 445.000 829.301 435.250 828.647 C 424.605 827.933,404.664 823.796,402.262 821.802 C 401.002 820.756,400.870 818.670,401.455 809.026 C 402.117 798.111,404.441 781.713,405.589 779.855 C 406.301 778.704,406.024 778.671,418.507 781.431 M874.705 785.010 C 876.363 792.300,878.452 817.064,877.672 820.171 C 877.116 822.384,875.906 822.900,865.544 825.341 C 855.583 827.686,835.089 830.072,834.953 828.901 C 834.928 828.680,834.505 822.200,834.013 814.500 C 833.521 806.800,832.810 797.323,832.433 793.439 L 831.748 786.379 841.124 785.117 C 846.281 784.423,855.000 782.808,860.500 781.529 C 866.000 780.251,871.165 779.275,871.979 779.362 C 872.908 779.461,873.921 781.558,874.705 785.010 M209.450 784.817 C 208.928 785.267,205.125 787.127,201.000 788.950 C 196.875 790.774,190.060 793.894,185.856 795.883 L 178.212 799.500 181.115 805.797 C 188.653 822.150,191.169 827.000,192.111 827.000 C 193.823 827.000,197.000 824.992,197.000 823.910 C 197.000 822.924,194.789 817.740,190.882 809.562 C 189.847 807.396,189.000 805.270,189.000 804.838 C 189.000 804.093,194.232 801.000,195.492 801.000 C 195.817 801.000,197.646 804.337,199.556 808.416 L 203.029 815.832 206.015 814.343 C 207.657 813.524,208.986 812.549,208.969 812.177 C 208.951 811.805,207.601 808.811,205.969 805.525 C 204.336 802.239,203.000 799.060,203.000 798.461 C 203.000 797.861,204.592 796.611,206.538 795.683 L 210.075 793.996 214.666 803.748 C 217.191 809.112,219.344 813.608,219.451 813.740 C 219.935 814.335,224.985 811.392,224.992 810.511 C 225.008 808.514,212.503 784.000,211.469 784.000 C 210.881 784.000,209.972 784.368,209.450 784.817 M1056.588 793.250 C 1054.226 798.337,1051.370 804.407,1050.243 806.738 L 1048.193 810.977 1064.721 818.988 C 1073.812 823.395,1081.553 827.000,1081.924 827.000 C 1082.294 827.000,1085.556 820.746,1089.171 813.102 L 1095.744 799.205 1093.325 798.102 C 1091.995 797.496,1090.365 797.005,1089.703 797.012 C 1089.041 797.018,1086.963 800.557,1085.085 804.877 C 1080.131 816.269,1079.972 816.433,1075.627 814.617 L 1072.055 813.125 1074.607 807.312 C 1076.011 804.116,1077.574 801.072,1078.080 800.550 C 1078.586 800.028,1079.000 799.252,1079.000 798.826 C 1079.000 798.045,1072.958 794.574,1072.647 795.176 C 1072.556 795.354,1071.027 798.538,1069.250 802.250 C 1067.473 805.962,1065.632 809.000,1065.159 809.000 C 1064.005 809.000,1058.000 806.889,1058.000 806.483 C 1058.000 806.307,1060.060 801.813,1062.577 796.498 C 1066.925 787.317,1067.063 786.764,1065.327 785.449 C 1064.322 784.687,1062.911 784.049,1062.192 784.032 C 1061.473 784.014,1058.951 788.163,1056.588 793.250 M559.490 796.428 C 562.143 802.163,564.268 807.194,564.212 807.609 C 564.118 808.309,546.351 814.105,540.071 815.484 L 537.289 816.095 534.005 802.521 C 532.199 795.054,530.913 788.753,531.148 788.518 C 531.383 788.283,536.284 787.683,542.038 787.184 C 547.792 786.686,552.988 786.215,553.584 786.139 C 554.180 786.062,556.837 790.692,559.490 796.428 M741.250 787.562 C 744.962 787.890,748.007 788.461,748.015 788.830 C 748.024 789.198,746.618 795.457,744.891 802.738 C 741.751 815.971,741.750 815.975,739.125 815.349 C 733.223 813.942,719.834 809.934,717.108 808.758 L 714.190 807.500 719.262 796.761 L 724.334 786.022 729.417 786.493 C 732.213 786.753,737.538 787.233,741.250 787.562 M476.601 788.613 L 489.701 789.266 490.360 803.767 C 490.723 811.743,491.288 819.946,491.616 821.997 L 492.212 825.725 484.470 826.877 C 480.213 827.510,470.644 828.320,463.208 828.677 L 449.687 829.325 450.280 815.913 C 450.607 808.536,451.414 798.968,452.073 794.652 L 453.272 786.804 458.386 787.382 C 461.199 787.700,469.395 788.254,476.601 788.613 M571.112 790.914 C 575.725 793.066,581.862 795.593,584.750 796.529 C 587.638 797.465,590.000 798.572,590.000 798.990 C 590.000 799.809,572.947 806.015,570.800 805.977 C 569.800 805.959,563.466 794.070,561.167 787.895 C 560.580 786.319,562.535 786.912,571.112 790.914 M716.646 789.750 C 715.873 791.263,713.828 795.538,712.101 799.250 C 710.374 802.962,708.421 806.000,707.761 806.000 C 705.571 806.000,688.132 799.596,688.537 798.941 C 688.755 798.587,692.887 796.868,697.717 795.122 C 702.548 793.376,708.525 790.868,711.000 789.549 C 717.223 786.234,718.421 786.276,716.646 789.750 M826.389 791.250 C 827.766 800.741,828.966 814.929,828.983 821.904 L 829.000 829.308 816.069 828.654 C 804.942 828.090,787.974 826.294,787.275 825.606 C 787.152 825.484,787.474 820.685,787.992 814.942 C 788.509 809.199,788.948 801.064,788.966 796.865 L 789.000 789.230 804.250 788.274 C 812.638 787.748,820.911 787.246,822.636 787.159 C 825.597 787.009,825.807 787.238,826.389 791.250 M526.000 792.055 C 526.000 793.050,527.359 799.136,529.020 805.579 C 530.681 812.021,531.919 817.385,531.770 817.499 C 530.680 818.330,497.861 825.195,497.362 824.696 C 496.545 823.878,494.948 790.652,495.691 789.909 C 496.839 788.761,523.177 788.275,524.750 789.372 C 525.438 789.852,526.000 791.059,526.000 792.055 M772.885 788.962 L 784.271 789.000 783.610 801.750 C 783.246 808.763,782.686 816.841,782.365 819.703 C 781.782 824.899,781.777 824.906,778.641 824.346 C 773.810 823.484,747.528 817.831,747.282 817.601 C 747.162 817.489,748.412 811.795,750.060 804.948 C 751.708 798.102,753.286 791.453,753.566 790.174 C 754.017 788.118,754.508 787.910,757.788 788.386 C 759.830 788.682,766.623 788.941,772.885 788.962 M618.000 804.048 C 623.225 804.681,628.957 805.492,630.737 805.849 L 633.974 806.500 625.294 812.645 C 620.521 816.024,616.139 818.571,615.558 818.305 C 614.234 817.698,602.000 803.403,602.000 802.463 C 602.000 802.084,603.462 802.026,605.250 802.335 C 607.038 802.645,612.775 803.416,618.000 804.048 M675.126 804.750 C 674.020 806.263,670.727 810.132,667.808 813.348 L 662.500 819.196 653.733 812.948 C 648.911 809.512,645.156 806.510,645.389 806.277 C 645.622 806.044,650.498 805.419,656.225 804.889 C 661.951 804.358,667.956 803.530,669.568 803.048 C 671.181 802.566,673.543 802.133,674.818 802.086 L 677.136 802.000 675.126 804.750 M603.350 812.440 C 607.118 817.058,610.163 821.210,610.118 821.668 C 609.985 822.994,587.909 836.180,586.644 835.689 C 586.015 835.445,582.687 829.851,579.248 823.257 L 572.996 811.269 582.748 807.730 C 588.112 805.784,593.400 804.159,594.500 804.119 C 595.843 804.069,598.752 806.805,603.350 812.440 M695.710 807.609 L 705.920 811.236 703.861 815.368 C 699.521 824.077,692.610 836.000,691.902 836.000 C 690.458 836.000,669.084 822.483,668.973 821.500 C 668.788 819.857,682.375 804.043,684.000 804.011 C 684.825 803.995,690.095 805.614,695.710 807.609 M649.882 816.334 C 653.739 818.992,657.332 821.696,657.868 822.341 C 658.556 823.169,655.992 826.392,649.153 833.295 L 639.464 843.076 629.576 833.027 C 624.138 827.500,619.930 822.737,620.225 822.441 C 620.521 822.146,624.978 819.025,630.131 815.506 C 638.006 810.128,639.769 809.298,641.185 810.304 C 642.112 810.962,646.026 813.675,649.882 816.334 M574.349 825.549 C 578.007 832.451,581.000 838.496,581.000 838.984 C 581.000 839.864,551.934 855.000,550.243 855.000 C 549.342 855.000,538.424 822.205,539.120 821.592 C 539.439 821.312,565.285 813.486,567.099 813.121 C 567.429 813.054,570.692 818.647,574.349 825.549 M723.000 816.405 C 727.675 817.795,733.435 819.421,735.801 820.018 C 739.564 820.969,740.024 821.379,739.480 823.302 C 737.390 830.684,729.666 853.633,729.048 854.297 C 727.966 855.460,698.000 840.221,698.000 838.508 C 698.000 837.727,699.269 834.931,700.820 832.294 C 702.371 829.657,705.358 824.227,707.457 820.226 C 710.239 814.923,711.710 813.077,712.887 813.415 C 713.774 813.669,718.325 815.015,723.000 816.405 M212.950 827.057 C 204.452 832.038,197.182 836.429,196.794 836.813 C 196.027 837.572,199.729 844.000,200.933 844.000 C 201.338 844.000,205.344 841.768,209.835 839.041 C 214.326 836.313,218.000 834.565,218.000 835.157 C 218.000 835.748,215.816 839.012,213.146 842.409 C 205.675 851.915,205.519 852.372,208.135 857.026 C 209.363 859.212,210.965 861.000,211.695 861.000 C 212.425 861.000,217.346 860.304,222.631 859.454 C 227.916 858.603,232.472 858.139,232.756 858.422 C 233.039 858.706,231.823 859.739,230.054 860.719 C 221.351 865.538,216.000 869.291,216.000 870.577 C 216.000 871.360,216.378 872.000,216.839 872.000 C 217.301 872.000,218.188 873.117,218.810 874.483 L 219.941 876.965 229.221 871.354 C 234.324 868.268,241.192 864.003,244.483 861.877 C 247.774 859.751,250.863 857.879,251.349 857.717 C 252.493 857.336,247.825 848.064,246.471 848.027 C 245.905 848.012,239.176 848.883,231.517 849.962 C 223.857 851.041,217.418 851.751,217.207 851.540 C 216.996 851.329,220.726 845.714,225.497 839.061 L 234.170 826.966 231.543 822.483 C 230.098 820.017,228.800 818.000,228.658 818.000 C 228.516 818.000,221.447 822.076,212.950 827.057 M538.849 839.254 C 541.792 848.189,544.403 856.020,544.651 856.656 C 545.400 858.569,507.068 872.401,505.464 870.797 C 503.792 869.125,496.937 831.730,498.091 830.576 C 498.455 830.212,528.718 823.679,532.500 823.148 C 533.050 823.071,535.907 830.319,538.849 839.254 M765.478 827.024 C 773.716 828.729,780.661 830.327,780.910 830.577 C 782.054 831.721,775.211 869.122,773.555 870.779 C 772.772 871.562,759.988 867.680,746.526 862.572 C 740.068 860.122,734.639 857.972,734.461 857.794 C 734.283 857.616,736.694 849.685,739.819 840.170 C 745.351 823.324,745.566 822.882,748.000 823.397 C 749.375 823.688,757.240 825.320,765.478 827.024 M1044.500 823.959 C 1041.335 825.277,1037.657 829.823,1032.197 839.169 L 1027.132 847.838 1042.723 857.169 C 1051.299 862.301,1058.633 866.630,1059.021 866.788 C 1059.734 867.079,1065.952 857.053,1069.873 849.290 C 1073.623 841.866,1072.390 835.648,1066.146 830.500 C 1058.615 824.290,1049.976 821.680,1044.500 823.959 M616.167 826.919 C 616.350 827.424,620.747 832.212,625.937 837.559 L 635.375 847.280 628.873 853.390 C 621.989 859.860,617.653 863.717,612.085 868.324 L 608.672 871.147 599.336 856.907 C 594.201 849.076,590.000 842.331,590.000 841.920 C 590.000 841.509,593.938 838.813,598.750 835.929 C 603.563 833.045,609.067 829.631,610.982 828.342 C 614.798 825.776,615.665 825.537,616.167 826.919 M680.250 836.011 C 685.063 838.832,688.974 841.446,688.943 841.820 C 688.857 842.838,681.212 854.914,675.208 863.514 L 669.916 871.095 663.213 865.297 C 657.106 860.015,648.886 852.590,645.320 849.134 C 644.545 848.383,644.043 847.391,644.205 846.931 C 644.367 846.470,648.932 841.594,654.348 836.094 L 664.196 826.095 667.848 828.489 C 669.857 829.806,675.438 833.191,680.250 836.011 M415.602 831.090 C 420.608 832.130,429.158 833.322,434.602 833.740 L 444.500 834.500 445.260 844.398 C 445.978 853.753,448.894 870.243,450.565 874.401 C 452.565 879.373,432.023 872.379,421.879 864.634 C 415.942 860.101,408.614 849.293,405.508 840.489 C 402.477 831.898,402.197 827.462,404.750 828.492 C 405.712 828.881,410.596 830.050,415.602 831.090 M875.883 833.731 C 874.442 841.672,867.518 854.429,861.177 860.824 C 853.406 868.662,838.957 875.953,831.125 875.989 C 829.057 875.999,828.826 875.645,829.338 873.250 C 829.662 871.737,830.655 867.125,831.546 863.000 C 832.436 858.875,833.465 850.775,833.832 845.000 L 834.500 834.500 844.000 833.821 C 852.476 833.215,873.825 829.508,874.873 828.461 C 876.170 827.163,876.635 829.588,875.883 833.731 M494.090 843.500 C 495.042 850.100,496.784 859.265,497.962 863.866 C 499.139 868.467,499.878 872.455,499.605 872.729 C 498.050 874.283,484.541 876.179,471.439 876.680 L 456.378 877.256 454.211 868.378 C 451.525 857.378,450.046 847.270,450.020 839.750 L 450.000 834.000 460.250 833.914 C 465.887 833.867,474.775 833.249,480.000 832.540 C 485.225 831.832,490.143 831.308,490.929 831.376 C 491.975 831.467,492.823 834.720,494.090 843.500 M801.211 832.980 C 806.551 833.541,815.057 834.000,820.113 834.000 L 829.304 834.000 828.663 844.250 C 828.044 854.164,823.911 874.198,822.013 876.484 C 821.502 877.100,819.274 877.711,817.063 877.841 C 809.155 878.308,783.159 874.953,780.118 873.073 C 779.250 872.537,779.571 869.771,781.353 862.408 C 782.677 856.941,784.304 848.200,784.968 842.984 C 786.516 830.832,786.509 830.852,789.228 831.455 C 790.478 831.733,795.870 832.419,801.211 832.980 M1055.300 833.617 C 1063.060 837.538,1065.062 843.037,1061.375 850.300 C 1058.401 856.158,1058.507 856.150,1049.649 851.157 C 1036.495 843.741,1037.487 844.652,1038.884 841.280 C 1042.314 832.999,1048.428 830.145,1055.300 833.617 M594.415 858.974 C 599.687 866.935,603.994 873.910,603.988 874.474 C 603.968 876.065,572.476 898.000,570.210 898.000 C 568.933 898.000,551.170 861.241,552.307 860.951 C 552.413 860.923,559.700 857.174,568.500 852.618 C 577.300 848.061,584.574 844.371,584.665 844.417 C 584.756 844.463,589.143 851.013,594.415 858.974 M725.749 860.087 C 726.688 860.397,726.480 861.867,724.915 866.000 C 722.239 873.063,709.989 898.000,709.195 898.000 C 706.967 898.000,675.000 875.859,675.000 874.317 C 675.000 873.990,679.307 867.094,684.571 858.992 L 694.142 844.261 709.321 851.968 C 717.670 856.206,725.062 859.860,725.749 860.087 M644.054 855.595 C 645.949 857.573,651.663 862.787,656.750 867.182 C 661.837 871.577,666.000 875.512,666.000 875.927 C 666.000 877.072,654.392 891.646,646.502 900.406 L 639.504 908.177 634.631 902.838 C 627.655 895.195,616.671 881.997,614.460 878.598 L 612.571 875.696 619.036 870.100 C 622.591 867.023,628.425 861.699,632.000 858.270 C 635.575 854.841,638.974 852.028,639.554 852.018 C 640.133 852.008,642.158 853.618,644.054 855.595 M1021.053 856.660 C 1019.894 858.133,1019.093 859.780,1019.273 860.319 C 1019.692 861.576,1048.085 881.000,1049.503 881.000 C 1050.438 881.000,1054.000 876.011,1054.000 874.701 C 1054.000 874.300,1028.343 856.964,1024.330 854.654 C 1023.675 854.277,1022.233 855.160,1021.053 856.660 M242.032 874.044 C 234.074 879.964,227.416 885.252,227.235 885.794 C 227.055 886.336,228.009 888.062,229.357 889.629 L 231.807 892.477 236.200 889.323 L 240.592 886.169 244.521 891.591 C 251.378 901.056,257.693 902.523,265.604 896.489 C 270.776 892.544,272.556 888.449,271.010 884.051 C 270.040 881.292,260.440 867.392,257.085 863.889 C 256.763 863.554,249.989 868.123,242.032 874.044 M549.381 867.754 C 550.416 870.364,554.419 878.921,558.278 886.770 C 562.137 894.618,565.094 901.239,564.850 901.484 C 564.605 901.728,560.152 903.896,554.953 906.302 C 545.630 910.616,534.836 914.285,528.000 915.462 C 524.574 916.052,524.421 915.931,520.796 909.783 C 516.547 902.575,512.262 893.300,508.959 884.162 C 506.336 876.905,506.380 876.828,514.365 874.912 C 517.050 874.268,525.379 871.370,532.874 868.472 C 540.368 865.574,546.725 863.159,547.000 863.105 C 547.275 863.052,548.347 865.143,549.381 867.754 M757.000 872.215 C 764.975 874.960,771.669 877.366,771.876 877.562 C 772.774 878.413,766.180 894.906,761.005 904.758 C 756.834 912.697,754.805 915.582,753.230 915.813 C 748.867 916.454,716.506 904.246,714.663 901.264 C 714.397 900.834,717.423 893.962,721.387 885.991 C 725.350 878.021,729.328 869.577,730.225 867.227 L 731.857 862.954 737.179 865.089 C 740.105 866.263,749.025 869.470,757.000 872.215 M1012.192 870.295 C 1010.987 871.579,1010.000 872.902,1010.000 873.235 C 1010.000 873.719,1015.953 882.470,1022.465 891.558 C 1024.485 894.378,1021.983 893.853,1011.556 889.269 L 1000.784 884.534 998.397 887.517 C 997.084 889.158,996.008 890.829,996.005 891.231 C 996.002 891.634,998.925 895.963,1002.500 900.852 C 1006.075 905.741,1009.000 910.025,1009.000 910.371 C 1009.000 911.481,1007.182 911.054,1001.780 908.675 C 986.285 901.852,986.488 901.873,983.254 906.743 C 981.642 909.171,979.669 908.040,1003.782 918.518 L 1017.063 924.289 1019.514 921.986 C 1022.753 918.944,1023.516 916.243,1021.720 914.178 C 1018.557 910.543,1010.844 898.823,1011.309 898.358 C 1011.580 898.087,1016.343 899.750,1021.893 902.053 L 1031.984 906.241 1034.009 903.871 C 1038.284 898.865,1038.425 899.265,1026.829 883.476 C 1020.779 875.239,1015.505 868.379,1015.107 868.231 C 1014.710 868.083,1013.398 869.012,1012.192 870.295 M260.558 879.520 L 264.360 885.040 262.369 887.707 C 261.274 889.174,259.077 890.808,257.487 891.338 C 254.823 892.226,254.297 891.956,250.800 887.901 C 248.713 885.480,247.004 882.958,247.003 882.296 C 247.001 881.363,255.449 874.000,256.522 874.000 C 256.651 874.000,258.467 876.484,260.558 879.520 M502.614 880.750 C 504.924 888.079,511.942 904.689,515.056 910.201 L 518.842 916.901 514.415 917.565 C 499.659 919.778,479.989 911.916,469.662 899.678 C 465.195 894.384,460.000 886.125,460.000 884.316 C 460.000 883.731,465.139 883.022,472.250 882.625 C 478.988 882.248,487.425 881.333,491.000 880.589 C 500.134 878.691,501.973 878.716,502.614 880.750 M789.500 881.000 C 795.934 882.100,805.204 883.000,810.099 883.000 C 820.321 883.000,820.434 883.139,816.319 890.624 C 812.402 897.749,800.640 908.997,793.649 912.303 C 786.584 915.644,775.973 918.000,767.994 918.000 C 762.049 918.000,760.003 916.907,761.828 914.706 C 763.915 912.188,771.845 895.161,774.613 887.253 C 776.201 882.717,777.568 879.004,777.651 879.003 C 777.733 879.001,783.066 879.900,789.500 881.000 M611.707 883.647 C 613.243 885.654,619.108 892.605,624.739 899.094 C 630.471 905.699,634.743 911.467,634.444 912.197 C 633.041 915.616,610.558 931.869,602.764 935.098 C 599.992 936.246,599.624 936.062,594.374 930.899 C 588.132 924.762,579.061 913.479,575.477 907.393 L 573.058 903.287 582.779 897.168 C 588.125 893.802,595.650 888.603,599.500 885.613 C 603.350 882.624,607.043 880.138,607.707 880.089 C 608.371 880.040,610.171 881.641,611.707 883.647 M676.606 883.748 C 679.298 885.810,687.018 891.163,693.763 895.645 L 706.026 903.793 700.918 911.431 C 694.754 920.647,680.460 936.000,678.044 936.000 C 674.219 936.000,645.713 916.022,644.306 912.355 C 644.045 911.674,647.981 906.488,653.054 900.831 C 658.127 895.175,664.069 888.174,666.259 885.273 C 668.449 882.373,670.572 880.000,670.976 880.000 C 671.381 880.000,673.915 881.687,676.606 883.748 M273.355 902.447 C 269.209 904.251,262.264 910.589,260.325 914.338 C 255.659 923.361,263.357 937.601,275.085 941.641 C 278.389 942.780,279.630 942.773,283.035 941.600 C 296.198 937.065,303.207 924.765,298.153 915.068 C 292.127 903.508,282.351 898.532,273.355 902.447 M586.367 930.208 C 590.565 934.998,594.000 939.101,594.000 939.326 C 594.000 940.182,582.230 942.954,576.000 943.565 C 562.093 944.929,547.196 939.496,535.532 928.808 C 531.939 925.516,529.000 922.461,529.000 922.020 C 529.000 921.578,530.237 920.932,531.750 920.585 C 538.945 918.931,551.561 914.396,559.605 910.572 L 568.500 906.343 573.617 913.922 C 576.431 918.090,582.168 925.419,586.367 930.208 M720.389 910.886 C 728.510 914.776,745.843 921.000,748.557 921.000 C 750.734 921.000,750.324 922.145,746.749 926.044 C 734.073 939.872,714.700 946.600,698.000 942.974 C 689.234 941.071,684.930 939.710,685.213 938.930 C 685.371 938.496,687.772 935.746,690.550 932.820 C 695.833 927.254,706.827 913.115,708.877 909.250 C 709.533 908.013,710.567 907.000,711.174 907.000 C 711.781 907.000,715.927 908.749,720.389 910.886 M288.248 913.012 C 291.938 916.702,292.216 917.354,291.710 921.124 C 290.866 927.421,283.648 934.000,277.584 934.000 C 274.024 934.000,268.197 928.567,267.442 924.545 C 266.456 919.287,269.859 914.039,276.502 910.575 C 281.277 908.086,283.856 908.621,288.248 913.012 M645.864 920.830 C 652.675 926.667,660.478 932.358,668.373 937.245 L 674.246 940.880 670.873 942.961 C 654.698 952.943,638.608 955.257,622.678 949.892 C 616.378 947.770,606.000 942.118,606.000 940.809 C 606.000 940.410,608.138 938.849,610.750 937.339 C 616.881 933.796,632.792 921.949,635.924 918.596 C 637.258 917.168,638.772 916.000,639.289 916.000 C 639.805 916.000,642.765 918.174,645.864 920.830 M970.893 921.331 C 969.459 921.974,964.327 926.250,959.489 930.833 L 950.693 939.165 964.096 952.608 L 977.500 966.051 986.145 957.275 C 998.996 944.230,999.700 938.474,989.703 928.167 C 982.600 920.846,976.733 918.713,970.893 921.331 M302.500 945.811 L 293.775 963.241 297.167 966.634 L 300.559 970.026 310.030 964.077 C 315.238 960.806,319.628 958.484,319.785 958.919 C 319.941 959.353,318.045 964.070,315.571 969.401 L 311.073 979.093 314.286 982.017 C 316.054 983.626,317.849 984.955,318.275 984.971 C 318.701 984.987,324.551 981.339,331.275 976.865 C 337.999 972.391,344.959 967.779,346.743 966.615 C 348.527 965.452,349.989 964.141,349.993 963.702 C 349.997 963.263,348.791 961.864,347.312 960.592 L 344.625 958.280 336.562 963.317 C 332.128 966.088,327.710 969.022,326.744 969.838 C 323.453 972.617,323.956 970.302,328.978 959.546 L 333.997 948.799 330.958 945.961 L 327.919 943.122 323.710 945.902 C 310.808 954.422,307.873 956.206,307.450 955.783 C 307.193 955.526,309.220 950.537,311.954 944.697 L 316.925 934.078 314.075 931.229 L 311.226 928.380 302.500 945.811 M981.941 932.566 C 986.706 936.871,988.671 941.835,986.941 945.201 C 985.493 948.020,979.926 954.000,978.750 954.000 C 978.278 954.000,974.208 950.432,969.704 946.072 L 961.517 938.143 964.008 935.439 C 970.723 928.150,976.100 927.289,981.941 932.566 M925.606 960.662 C 924.069 961.984,923.025 963.614,923.285 964.283 C 924.087 966.343,945.229 991.483,946.399 991.768 C 947.005 991.916,952.554 987.714,958.732 982.432 L 969.963 972.827 968.232 970.445 C 967.279 969.135,966.050 968.051,965.500 968.036 C 964.950 968.021,961.125 970.930,957.000 974.500 C 952.875 978.070,949.187 980.994,948.805 980.996 C 948.422 980.998,944.158 976.388,939.327 970.750 C 934.497 965.112,930.063 959.996,929.473 959.379 C 928.688 958.559,927.652 958.902,925.606 960.662 M346.961 982.628 C 341.207 990.569,336.383 997.614,336.239 998.283 C 336.096 998.952,341.496 1003.363,348.239 1008.085 L 360.500 1016.671 362.437 1013.696 C 364.366 1010.732,364.365 1010.714,362.253 1009.110 C 359.834 1007.273,349.280 999.798,347.853 998.912 C 346.608 998.139,350.101 992.015,351.793 992.006 C 352.504 992.003,355.470 993.800,358.384 996.000 C 361.298 998.200,364.091 999.986,364.591 999.969 C 365.091 999.951,366.285 998.857,367.245 997.537 C 369.199 994.850,369.528 995.256,360.057 988.685 C 357.826 987.137,356.000 985.510,356.000 985.070 C 356.000 983.935,359.991 979.000,360.909 979.000 C 361.329 979.000,365.457 981.700,370.082 985.000 L 378.492 990.999 380.224 988.750 C 381.176 987.512,381.966 986.249,381.978 985.943 C 382.000 985.383,378.985 983.165,364.961 973.426 L 357.421 968.189 346.961 982.628 M909.000 973.729 C 907.850 974.168,892.018 984.952,890.136 986.580 C 889.936 986.753,892.842 991.306,896.595 996.697 C 900.347 1002.089,905.151 1009.073,907.270 1012.219 L 911.124 1017.937 914.549 1015.719 C 916.434 1014.498,917.981 1013.159,917.988 1012.741 C 917.994 1012.324,916.650 1010.119,915.000 1007.841 C 911.302 1002.737,911.285 1001.914,914.828 999.899 C 917.512 998.373,917.953 998.436,924.235 1001.244 L 930.827 1004.190 934.608 1001.620 L 938.389 999.051 931.714 996.024 L 925.039 992.998 925.641 988.602 C 926.983 978.812,917.620 970.445,909.000 973.729 M914.677 982.250 C 917.593 985.490,918.085 986.615,917.383 988.444 C 916.734 990.137,908.836 996.000,907.206 996.000 C 905.796 996.000,900.722 988.259,901.406 987.152 C 902.100 986.030,911.029 980.000,911.997 980.000 C 912.357 980.000,913.563 981.013,914.677 982.250 M382.898 998.750 C 379.997 1003.563,375.686 1010.771,373.318 1014.768 L 369.012 1022.037 372.256 1024.015 C 374.040 1025.102,375.838 1025.994,376.250 1025.996 C 376.663 1025.998,378.238 1023.761,379.750 1021.025 C 381.973 1017.003,382.883 1016.165,384.500 1016.647 C 388.432 1017.822,389.000 1019.070,389.000 1026.541 C 389.000 1033.746,389.042 1033.863,392.368 1035.918 C 394.220 1037.063,396.133 1038.000,396.618 1038.000 C 397.103 1038.000,397.373 1034.903,397.218 1031.118 L 396.937 1024.234 400.346 1023.595 C 404.512 1022.813,408.612 1019.172,410.551 1014.533 C 413.861 1006.611,411.882 1003.460,398.632 995.553 C 393.514 992.499,389.067 990.000,388.750 990.000 C 388.432 990.000,385.799 993.938,382.898 998.750 M874.000 996.935 C 865.686 999.473,856.783 1007.123,855.730 1012.634 C 854.311 1020.054,861.025 1032.382,868.439 1035.971 C 872.601 1037.985,873.558 1038.097,877.709 1037.052 C 887.216 1034.658,895.256 1027.968,896.580 1021.351 C 898.037 1014.065,891.492 1002.009,884.038 998.250 C 879.328 995.875,878.030 995.705,874.000 996.935 M398.763 1003.527 C 401.644 1005.466,404.000 1007.199,404.000 1007.377 C 404.000 1007.556,403.494 1009.154,402.875 1010.929 C 401.224 1015.664,398.425 1016.327,393.000 1013.270 C 390.525 1011.875,388.124 1010.396,387.665 1009.982 C 386.474 1008.909,391.134 1000.000,392.886 1000.000 C 393.238 1000.000,395.883 1001.587,398.763 1003.527 M880.613 1005.906 C 884.096 1008.030,888.000 1015.169,888.000 1019.416 C 888.000 1021.249,886.838 1023.362,884.600 1025.600 C 881.742 1028.458,880.484 1029.000,876.704 1029.000 C 872.821 1029.000,871.790 1028.525,869.149 1025.517 C 862.518 1017.965,862.778 1010.262,869.802 1006.190 C 874.380 1003.536,876.630 1003.477,880.613 1005.906 M414.492 1025.250 C 410.096 1033.638,406.370 1041.186,406.210 1042.024 C 406.034 1042.948,407.303 1044.174,409.433 1045.139 C 413.700 1047.073,412.901 1048.092,422.468 1028.500 C 426.228 1020.800,429.476 1014.182,429.685 1013.793 C 430.062 1013.092,424.849 1010.000,423.291 1010.000 C 422.847 1010.000,418.887 1016.862,414.492 1025.250 M843.723 1013.729 C 839.491 1015.417,839.197 1016.918,841.011 1027.566 C 841.567 1030.830,842.231 1034.737,842.486 1036.250 C 842.741 1037.763,842.541 1039.000,842.041 1039.000 C 841.541 1039.000,837.898 1034.950,833.945 1030.000 C 829.993 1025.050,826.603 1021.000,826.413 1021.000 C 824.816 1021.000,819.000 1024.644,819.000 1025.645 C 819.000 1026.346,819.720 1031.468,820.601 1037.026 C 822.075 1046.334,821.929 1050.065,820.196 1047.354 C 819.813 1046.755,816.395 1042.653,812.600 1038.237 C 805.995 1030.552,805.578 1030.251,802.848 1031.203 C 797.615 1033.027,797.153 1032.111,813.565 1052.440 C 816.350 1055.890,819.589 1059.934,820.763 1061.426 L 822.897 1064.139 827.478 1062.113 C 831.347 1060.401,831.985 1059.729,831.578 1057.793 C 830.613 1053.195,828.788 1037.878,829.161 1037.505 C 829.372 1037.294,832.685 1040.910,836.522 1045.541 C 840.360 1050.171,844.047 1053.969,844.716 1053.980 C 845.385 1053.991,847.515 1053.245,849.450 1052.323 C 852.703 1050.771,852.927 1050.377,852.441 1047.073 C 852.151 1045.108,850.909 1036.467,849.680 1027.872 L 847.446 1012.244 843.723 1013.729 M435.032 1019.750 C 434.324 1021.263,430.895 1028.943,427.412 1036.818 L 421.081 1051.136 424.508 1052.568 C 429.882 1054.813,428.681 1056.257,436.044 1038.707 C 437.842 1034.421,439.630 1031.271,440.017 1031.707 C 440.404 1032.143,441.260 1037.225,441.918 1043.000 C 444.090 1062.037,443.718 1060.950,448.799 1063.128 C 451.281 1064.192,453.706 1064.931,454.187 1064.771 C 455.047 1064.484,458.688 1056.618,465.543 1040.238 C 467.444 1035.694,469.000 1031.604,469.000 1031.149 C 469.000 1030.219,464.557 1028.000,462.697 1028.000 C 462.032 1028.000,460.870 1029.463,460.115 1031.250 C 459.359 1033.037,457.224 1037.803,455.371 1041.839 C 453.517 1045.876,452.000 1049.678,452.000 1050.289 C 452.000 1050.977,451.677 1051.038,451.153 1050.450 C 450.687 1049.928,449.483 1043.073,448.476 1035.219 L 446.647 1020.937 442.196 1018.969 C 436.552 1016.472,436.569 1016.470,435.032 1019.750 M481.313 1038.103 C 475.004 1039.928,469.000 1050.472,469.000 1059.728 C 469.000 1067.870,473.070 1072.412,483.618 1076.041 C 493.932 1079.589,500.488 1077.845,503.863 1070.657 C 507.745 1062.388,507.894 1062.718,498.948 1059.785 L 490.895 1057.145 489.948 1059.638 C 488.525 1063.381,488.702 1063.746,492.552 1065.017 C 499.523 1067.318,493.197 1071.274,485.996 1069.117 C 480.219 1067.386,478.000 1064.847,478.000 1059.968 C 478.000 1055.590,480.123 1049.626,482.693 1046.787 C 486.709 1042.350,499.449 1045.995,500.634 1051.919 C 501.023 1053.863,501.985 1055.030,503.516 1055.415 C 504.780 1055.732,506.598 1056.292,507.556 1056.660 C 509.107 1057.255,509.237 1056.792,508.744 1052.414 C 508.276 1048.256,507.565 1046.945,504.124 1043.890 C 501.551 1041.605,497.913 1039.678,494.213 1038.640 C 487.741 1036.824,485.985 1036.751,481.313 1038.103 M762.328 1043.904 C 751.739 1047.515,748.790 1051.607,751.025 1059.588 C 753.162 1067.223,758.149 1068.781,770.286 1065.605 C 775.842 1064.151,779.000 1064.303,779.000 1066.025 C 779.000 1066.471,779.266 1067.530,779.591 1068.377 C 780.315 1070.264,775.326 1073.529,770.268 1074.478 C 767.513 1074.994,766.302 1074.693,764.560 1073.057 C 762.866 1071.465,761.604 1071.129,759.154 1071.619 C 757.396 1071.971,755.724 1072.637,755.438 1073.100 C 754.613 1074.435,757.808 1079.827,760.176 1081.094 C 765.161 1083.762,782.166 1079.789,786.565 1074.928 C 788.773 1072.489,788.763 1066.411,786.545 1061.736 C 783.906 1056.174,780.121 1055.329,770.036 1058.051 C 761.176 1060.442,759.000 1059.919,759.000 1055.401 C 759.000 1052.494,762.151 1050.316,767.619 1049.444 C 771.135 1048.883,771.959 1049.104,773.259 1050.959 C 774.530 1052.774,775.375 1053.020,778.390 1052.455 C 783.012 1051.588,783.190 1048.914,778.894 1044.901 C 775.193 1041.444,770.390 1041.155,762.328 1043.904 M530.000 1050.566 C 530.000 1050.877,528.392 1059.019,526.426 1068.658 C 524.460 1078.298,523.067 1086.400,523.330 1086.663 C 523.593 1086.926,528.969 1088.092,535.277 1089.255 C 546.210 1091.270,546.950 1091.290,551.123 1089.686 C 558.065 1087.018,561.917 1079.752,561.976 1069.218 C 562.007 1063.668,559.846 1058.600,556.519 1056.420 C 552.263 1053.632,530.000 1048.717,530.000 1050.566 M733.248 1051.706 C 730.271 1052.279,729.448 1054.028,727.108 1064.748 C 726.025 1069.712,724.624 1075.684,723.995 1078.019 L 722.851 1082.266 714.346 1069.531 L 705.841 1056.797 701.171 1057.481 C 698.602 1057.857,696.226 1058.465,695.892 1058.832 C 695.266 1059.520,701.210 1094.543,702.105 1095.438 C 702.380 1095.713,704.269 1095.668,706.303 1095.338 C 710.646 1094.633,710.745 1094.077,708.459 1083.121 C 707.612 1079.062,707.074 1075.279,707.262 1074.715 C 707.450 1074.150,710.396 1078.041,713.808 1083.361 C 719.101 1091.614,720.342 1092.968,722.256 1092.580 C 730.119 1090.987,729.338 1092.006,731.913 1079.984 C 733.221 1073.883,734.608 1069.253,734.996 1069.695 C 735.384 1070.138,736.294 1074.458,737.019 1079.295 C 737.743 1084.132,738.740 1088.339,739.233 1088.644 C 739.726 1088.949,741.732 1088.898,743.691 1088.530 L 747.253 1087.862 746.634 1083.181 C 746.293 1080.606,744.835 1072.313,743.394 1064.750 C 740.510 1049.611,740.981 1050.217,733.248 1051.706 M547.500 1060.266 C 551.918 1062.456,553.000 1064.211,553.000 1069.187 C 553.000 1071.870,552.348 1075.624,551.552 1077.530 C 549.562 1082.292,546.401 1083.546,539.248 1082.412 C 532.632 1081.362,532.920 1082.562,535.609 1067.257 L 537.234 1058.014 541.367 1058.644 C 543.640 1058.991,546.400 1059.720,547.500 1060.266 M572.000 1058.449 C 572.000 1058.858,571.062 1067.087,569.916 1076.736 C 567.626 1096.014,567.615 1095.955,573.621 1095.985 C 576.695 1096.000,576.752 1095.911,577.420 1090.000 L 578.099 1084.000 581.934 1084.000 C 585.672 1084.000,585.824 1084.144,588.035 1089.750 C 589.281 1092.912,590.796 1096.006,591.401 1096.625 C 592.773 1098.029,600.000 1099.187,600.000 1098.003 C 600.000 1097.524,598.795 1094.353,597.321 1090.956 C 594.912 1085.400,594.807 1084.688,596.272 1083.868 C 601.005 1081.219,603.715 1074.627,602.574 1068.541 C 601.259 1061.531,596.941 1059.470,581.250 1058.359 C 576.163 1057.999,572.000 1058.040,572.000 1058.449 M667.292 1060.711 C 664.208 1061.105,663.982 1061.456,661.442 1069.810 C 659.989 1074.590,657.755 1081.650,656.477 1085.500 C 655.198 1089.350,653.832 1094.249,653.439 1096.387 L 652.726 1100.274 656.605 1099.546 C 661.584 1098.612,661.635 1098.573,662.318 1095.160 C 662.800 1092.749,663.514 1092.176,666.697 1091.650 C 668.789 1091.305,672.329 1091.017,674.565 1091.011 C 678.256 1091.001,678.788 1091.333,680.358 1094.624 C 681.974 1098.013,682.318 1098.210,685.667 1097.667 C 687.636 1097.347,689.469 1096.864,689.740 1096.593 C 690.198 1096.136,677.747 1068.575,674.564 1063.000 C 673.033 1060.319,672.262 1060.076,667.292 1060.711 M612.555 1061.911 C 612.144 1062.576,611.561 1071.121,611.259 1080.900 L 610.710 1098.681 619.105 1099.335 C 623.722 1099.694,630.763 1099.991,634.750 1099.994 L 642.000 1100.000 642.000 1096.584 L 642.000 1093.169 631.000 1092.456 L 620.000 1091.743 620.000 1087.871 L 620.000 1084.000 628.500 1084.000 L 637.000 1084.000 637.000 1080.500 L 637.000 1077.000 628.443 1077.000 L 619.885 1077.000 620.193 1072.750 L 620.500 1068.500 631.130 1068.797 L 641.760 1069.094 642.435 1066.402 C 642.807 1064.922,642.721 1063.321,642.245 1062.845 C 640.766 1061.366,613.424 1060.506,612.555 1061.911 M591.750 1066.574 C 593.551 1066.945,594.000 1067.716,594.000 1070.437 C 594.000 1076.514,593.435 1077.000,586.362 1077.000 C 578.959 1077.000,578.413 1076.402,579.457 1069.437 L 580.138 1064.898 584.819 1065.504 C 587.394 1065.837,590.513 1066.318,591.750 1066.574 M671.851 1075.750 C 672.892 1077.813,674.056 1080.513,674.439 1081.750 C 675.096 1083.875,674.858 1084.000,670.161 1084.000 L 665.188 1084.000 667.237 1078.000 C 668.364 1074.700,669.437 1072.000,669.622 1072.000 C 669.808 1072.000,670.811 1073.688,671.851 1075.750 M930.969 1123.328 C 927.961 1125.158,922.237 1128.553,918.250 1130.872 C 914.263 1133.192,911.000 1135.367,911.000 1135.707 C 911.000 1136.046,912.147 1138.282,913.550 1140.675 L 916.100 1145.026 920.800 1142.353 C 930.601 1136.780,942.000 1129.709,942.000 1129.203 C 942.000 1128.589,937.032 1120.000,936.677 1120.000 C 936.545 1120.000,933.977 1121.498,930.969 1123.328 M340.889 1125.555 C 338.824 1129.492,338.704 1130.238,340.000 1131.046 C 346.100 1134.847,363.637 1144.927,364.208 1144.960 C 365.030 1145.007,370.426 1136.071,369.871 1135.582 C 368.768 1134.607,344.643 1121.000,344.019 1121.000 C 343.611 1121.000,342.203 1123.050,340.889 1125.555 M390.246 1151.250 C 389.007 1153.588,387.996 1155.858,387.997 1156.296 C 387.999 1156.733,391.938 1158.918,396.750 1161.150 C 450.388 1186.025,504.780 1202.075,562.000 1209.911 C 593.883 1214.277,597.735 1214.501,640.500 1214.472 C 677.469 1214.447,684.776 1214.176,701.500 1212.214 C 752.727 1206.205,796.594 1195.722,842.473 1178.524 C 858.934 1172.354,890.593 1158.701,892.350 1157.015 C 892.818 1156.566,891.999 1154.149,890.531 1151.643 L 887.861 1147.087 882.180 1149.679 C 828.873 1174.009,782.471 1188.394,729.925 1196.879 C 629.539 1213.089,524.883 1201.445,430.909 1163.610 C 420.784 1159.533,408.056 1154.128,402.625 1151.599 C 397.194 1149.070,392.693 1147.000,392.623 1147.000 C 392.554 1147.000,391.484 1148.912,390.246 1151.250 " stroke="none" fill="black" fill-rule="evenodd"/></svg>