<svg id="svg" version="1.1" width="350" height="350" viewBox="0 0 350 350" xmlns="http://www.w3.org/2000/svg"><path d="M159.343 10.465 L 152.418 13.929 146.959 12.476 C 139.906 10.600,135.094 10.626,128.377 12.579 C 123.085 14.117,115.229 19.261,111.909 23.360 C 110.572 25.012,109.290 25.345,105.114 25.123 C 92.940 24.477,79.968 32.301,74.080 43.843 C 72.400 47.136,71.386 47.843,66.324 49.256 C 53.920 52.717,45.532 61.470,42.380 74.243 C 40.855 80.422,40.375 81.176,36.526 83.432 C 26.197 89.485,20.880 98.951,20.391 112.156 C 20.083 120.482,19.937 120.957,16.536 124.656 C 10.889 130.798,8.654 136.393,8.208 145.500 C 7.899 151.819,8.245 154.628,9.856 158.865 C 11.648 163.580,11.725 164.491,10.486 166.381 C 5.482 174.018,4.297 188.348,7.978 196.700 C 9.141 199.340,11.198 203.100,12.549 205.056 C 14.861 208.406,14.940 208.958,13.906 214.553 C 13.302 217.819,13.105 222.736,13.469 225.479 C 14.368 232.255,19.388 241.295,25.050 246.333 C 29.482 250.276,29.767 250.844,30.368 256.914 C 31.570 269.047,39.138 279.913,49.897 284.952 C 54.419 287.070,55.011 287.766,57.051 293.361 C 61.255 304.890,75.342 315.832,86.288 316.070 C 89.039 316.130,90.146 317.026,94.001 322.308 C 97.636 327.290,99.827 329.151,105.399 331.988 C 111.717 335.205,113.060 335.508,121.398 335.594 C 130.075 335.683,130.725 335.846,135.314 339.094 C 145.435 346.254,156.247 347.738,168.321 343.624 L 175.142 341.300 181.617 343.650 C 192.929 347.756,203.313 346.395,213.800 339.432 C 219.249 335.814,219.538 335.744,228.429 335.890 C 236.140 336.017,238.271 335.676,242.640 333.617 C 248.693 330.764,255.334 325.016,258.654 319.756 C 260.450 316.911,261.689 315.999,263.763 315.994 C 275.725 315.970,289.003 305.153,293.588 291.697 C 294.913 287.807,295.867 286.760,299.826 284.852 C 305.937 281.906,314.246 273.546,316.940 267.631 C 318.118 265.045,319.353 260.021,319.685 256.465 C 320.018 252.909,320.609 250.000,320.999 250.000 C 322.957 250.000,331.531 240.081,333.736 235.266 C 336.738 228.707,337.738 218.987,336.084 212.421 C 335.035 208.252,335.110 207.497,336.767 205.616 C 345.250 195.985,347.163 181.007,341.414 169.242 C 338.869 164.034,338.861 163.935,340.520 158.940 C 341.725 155.313,342.096 151.453,341.842 145.198 C 341.439 135.261,339.314 129.818,333.500 123.836 C 330.030 120.266,329.933 119.949,329.648 111.336 C 329.406 104.022,328.883 101.578,326.608 97.144 C 323.505 91.098,316.602 83.906,312.120 82.050 C 309.650 81.026,308.941 79.953,308.078 75.926 C 305.079 61.944,295.996 52.294,282.679 48.941 C 278.783 47.960,277.768 47.160,275.958 43.643 C 270.275 32.602,257.724 25.000,245.180 25.000 C 241.355 25.000,240.096 24.421,236.287 20.910 C 227.174 12.511,213.982 9.119,202.925 12.334 L 197.493 13.912 190.626 10.456 C 184.358 7.302,182.996 7.000,175.014 7.000 C 167.036 7.000,165.661 7.304,159.343 10.465 M182.991 11.590 C 185.936 12.464,189.396 13.868,190.680 14.710 L 193.014 16.239 188.512 19.094 C 186.036 20.665,181.997 23.805,179.538 26.072 L 175.066 30.194 169.283 25.204 C 166.102 22.459,162.021 19.328,160.214 18.246 L 156.927 16.278 159.317 14.712 C 162.438 12.667,170.682 10.158,174.568 10.070 C 176.256 10.031,180.046 10.715,182.991 11.590 M148.039 16.639 C 148.615 17.215,147.491 19.362,145.093 22.265 C 142.960 24.846,140.040 28.963,138.604 31.413 L 135.994 35.867 127.747 32.009 C 123.211 29.888,118.236 27.837,116.691 27.453 L 113.883 26.754 116.174 24.314 C 118.989 21.318,124.076 18.118,128.882 16.320 C 132.857 14.833,146.459 15.059,148.039 16.639 M225.610 18.319 C 228.300 19.691,231.763 22.144,233.307 23.770 L 236.113 26.727 232.933 27.363 C 231.184 27.713,226.283 29.736,222.042 31.859 L 214.332 35.718 211.476 31.109 C 209.906 28.574,206.865 24.364,204.720 21.753 C 202.027 18.476,201.234 16.875,202.160 16.583 C 202.897 16.349,204.175 15.904,205.000 15.593 C 208.582 14.241,220.779 15.855,225.610 18.319 M160.640 23.345 C 163.863 25.735,167.705 28.914,169.178 30.409 L 171.855 33.128 165.306 41.314 C 161.704 45.816,158.404 49.885,157.974 50.354 C 157.543 50.824,154.561 49.276,151.346 46.914 C 148.130 44.551,144.038 41.557,142.251 40.259 L 139.002 37.900 142.604 32.200 C 146.154 26.582,152.753 19.000,154.093 19.000 C 154.471 19.000,157.417 20.955,160.640 23.345 M200.168 22.750 C 202.133 24.813,205.387 28.975,207.397 32.000 L 211.053 37.500 208.807 39.000 C 207.572 39.825,203.339 42.804,199.401 45.620 L 192.241 50.740 185.001 41.659 L 177.760 32.579 181.630 29.231 C 185.814 25.612,195.123 19.000,196.034 19.000 C 196.342 19.000,198.202 20.688,200.168 22.750 M107.000 29.550 C 107.000 29.852,106.248 31.539,105.328 33.300 C 104.409 35.060,102.643 39.650,101.405 43.500 C 99.647 48.967,98.754 50.463,97.327 50.332 C 90.447 49.698,77.000 47.490,77.000 46.994 C 77.000 46.663,78.271 44.391,79.824 41.946 C 82.912 37.085,88.763 32.561,94.698 30.444 C 98.452 29.105,107.000 28.483,107.000 29.550 M258.088 31.515 C 263.668 34.351,269.346 39.461,271.814 43.868 L 274.128 48.000 269.314 48.015 C 266.666 48.023,261.622 48.708,258.105 49.537 C 254.588 50.366,251.596 50.922,251.455 50.772 C 251.314 50.622,250.100 47.350,248.759 43.500 C 247.417 39.650,245.539 34.747,244.585 32.604 L 242.851 28.709 248.764 29.245 C 252.015 29.540,256.211 30.561,258.088 31.515 M120.820 33.172 C 125.044 34.916,129.625 37.030,131.000 37.869 C 132.375 38.708,133.626 39.469,133.780 39.561 C 133.934 39.652,132.247 43.477,130.030 48.061 C 127.814 52.644,126.000 56.954,126.000 57.638 C 126.000 60.112,124.003 59.981,116.542 57.017 C 112.365 55.358,108.371 54.000,107.665 54.000 C 106.960 54.000,105.578 53.412,104.596 52.694 C 102.898 51.452,102.943 50.996,105.526 43.444 C 108.444 34.912,110.914 30.000,112.285 30.000 C 112.755 30.000,116.595 31.427,120.820 33.172 M240.909 33.821 C 243.616 39.128,247.349 50.984,246.561 51.772 C 246.203 52.130,241.993 53.847,237.205 55.589 C 232.417 57.330,227.758 59.065,226.850 59.446 C 225.574 59.981,224.923 59.272,223.977 56.319 C 223.305 54.218,221.272 49.453,219.460 45.728 L 216.166 38.956 220.333 36.814 C 226.343 33.724,235.218 30.191,237.230 30.088 C 238.276 30.035,239.730 31.510,240.909 33.821 M177.734 38.750 C 182.102 43.953,189.000 52.849,189.000 53.278 C 189.000 53.515,185.838 56.519,181.974 59.953 L 174.948 66.198 170.378 62.349 C 167.864 60.232,164.516 57.375,162.937 56.000 L 160.066 53.500 167.040 44.750 C 170.876 39.938,174.332 36.000,174.720 36.000 C 175.107 36.000,176.464 37.237,177.734 38.750 M217.977 51.565 C 220.289 56.838,222.028 61.290,221.841 61.460 C 220.925 62.287,204.757 70.085,204.521 69.813 C 204.372 69.641,202.109 66.140,199.493 62.034 L 194.736 54.567 198.573 51.250 C 203.657 46.856,212.337 41.096,213.136 41.586 C 213.486 41.801,215.664 46.292,217.977 51.565 M146.566 48.165 C 155.960 55.122,155.747 53.436,148.630 64.549 L 144.761 70.592 136.424 66.264 C 129.805 62.828,128.215 61.582,128.708 60.218 C 130.443 55.419,136.960 42.000,137.557 42.000 C 137.934 42.000,141.988 44.774,146.566 48.165 M70.034 57.600 C 69.484 60.295,68.766 65.537,68.438 69.250 L 67.841 76.000 63.670 76.024 C 59.994 76.046,57.125 76.512,48.250 78.527 C 46.332 78.963,46.003 78.629,46.022 76.269 C 46.076 69.406,52.946 59.670,60.500 55.748 C 64.052 53.905,70.045 52.018,70.767 52.516 C 70.914 52.618,70.584 54.905,70.034 57.600 M94.250 54.054 C 98.327 55.185,98.454 55.577,97.062 62.701 C 96.546 65.340,95.848 69.605,95.511 72.178 L 94.899 76.856 83.700 76.291 C 77.540 75.981,72.324 75.576,72.110 75.390 C 71.578 74.931,73.991 53.824,74.708 52.663 C 75.380 51.575,88.742 52.526,94.250 54.054 M276.654 58.000 C 277.288 61.025,277.851 66.313,277.904 69.750 L 278.000 76.000 271.750 76.009 C 268.313 76.013,263.188 76.295,260.361 76.635 L 255.222 77.252 254.556 71.876 C 254.189 68.919,253.422 64.089,252.851 61.143 C 252.264 58.110,252.191 55.409,252.683 54.917 C 253.980 53.620,263.744 52.170,270.000 52.346 L 275.500 52.500 276.654 58.000 M288.500 55.196 C 293.620 57.734,297.573 61.457,300.502 66.500 C 302.710 70.302,305.314 78.019,304.622 78.711 C 304.444 78.889,301.052 78.352,297.084 77.518 C 293.116 76.683,288.099 76.000,285.935 76.000 L 282.000 76.000 281.979 70.250 C 281.968 67.088,281.371 61.699,280.654 58.275 L 279.349 52.050 281.925 52.631 C 283.341 52.951,286.300 54.106,288.500 55.196 M114.499 60.435 C 118.348 61.899,121.864 63.464,122.311 63.911 C 122.758 64.358,121.874 68.526,120.347 73.174 L 117.571 81.624 108.557 79.750 C 103.599 78.720,99.393 77.727,99.210 77.543 C 98.849 77.182,100.792 61.881,101.648 58.344 C 102.244 55.882,102.751 55.964,114.499 60.435 M249.920 66.610 C 250.576 72.445,250.941 77.392,250.730 77.603 C 250.520 77.814,248.132 78.433,245.424 78.980 C 242.716 79.527,238.783 80.390,236.684 80.897 C 233.960 81.555,232.752 81.487,232.463 80.660 C 230.969 76.384,227.119 63.558,227.290 63.430 C 228.436 62.580,246.113 56.185,247.613 56.079 C 248.296 56.030,249.186 60.093,249.920 66.610 M167.279 65.014 L 172.057 69.379 166.813 74.690 C 163.928 77.610,161.328 80.000,161.034 79.999 C 160.740 79.999,157.707 78.281,154.294 76.181 L 148.088 72.364 153.092 64.553 L 158.097 56.742 160.298 58.696 C 161.509 59.771,164.650 62.614,167.279 65.014 M196.909 65.012 C 199.364 69.062,200.952 72.527,200.437 72.712 C 199.922 72.897,197.025 74.596,194.000 76.488 L 188.500 79.928 183.000 74.410 L 177.500 68.892 184.000 62.981 C 187.575 59.731,190.937 57.201,191.472 57.359 C 192.006 57.518,194.453 60.962,196.909 65.012 M228.433 80.622 C 228.910 82.495,228.250 82.947,222.790 84.479 C 219.388 85.433,216.065 86.421,215.405 86.675 C 214.417 87.054,206.481 74.130,207.268 73.422 C 207.395 73.307,211.100 71.368,215.500 69.111 L 223.500 65.010 225.696 71.755 C 226.904 75.465,228.135 79.455,228.433 80.622 M135.104 69.624 C 138.897 71.617,141.996 73.754,141.991 74.374 C 141.974 76.415,135.985 86.000,134.730 85.996 C 134.053 85.994,130.727 85.206,127.337 84.246 L 121.174 82.500 123.150 76.500 C 125.797 68.461,126.836 66.000,127.582 66.000 C 127.926 66.000,131.311 67.631,135.104 69.624 M181.354 78.079 L 185.207 81.659 180.058 84.963 C 174.915 88.263,174.906 88.265,171.642 86.506 C 164.021 82.402,164.051 82.532,169.480 77.021 C 174.891 71.527,174.236 71.468,181.354 78.079 M156.672 82.377 C 157.560 83.227,157.020 84.444,154.448 87.387 L 151.051 91.274 146.276 89.987 C 138.957 88.014,138.980 88.067,142.732 81.699 L 146.149 75.897 150.825 78.576 C 153.396 80.049,156.028 81.760,156.672 82.377 M207.011 82.022 C 209.224 86.405,209.704 88.169,208.775 88.505 C 208.074 88.759,205.693 89.592,203.484 90.356 L 199.469 91.746 195.734 87.453 C 193.680 85.092,192.000 82.936,192.000 82.663 C 192.000 82.069,202.177 76.054,203.236 76.022 C 203.640 76.010,205.339 78.710,207.011 82.022 M69.305 88.250 C 69.637 92.787,70.197 97.897,70.550 99.605 C 71.166 102.584,71.035 102.736,67.346 103.328 C 65.231 103.667,60.350 104.592,56.500 105.383 C 52.650 106.174,49.184 106.523,48.798 106.159 C 48.021 105.425,45.000 89.015,45.000 85.524 C 45.000 83.643,45.939 83.075,51.250 81.739 C 54.688 80.875,60.021 80.130,63.101 80.084 L 68.703 80.000 69.305 88.250 M90.163 80.609 L 94.606 81.218 94.186 90.359 C 93.954 95.387,93.689 99.592,93.596 99.703 C 93.185 100.197,74.978 102.311,74.578 101.912 C 74.334 101.667,73.753 96.637,73.288 90.733 L 72.443 80.000 79.082 80.000 C 82.733 80.000,87.720 80.274,90.163 80.609 M278.000 81.558 C 278.000 82.416,277.477 87.370,276.839 92.567 L 275.677 102.018 266.089 101.371 C 260.815 101.015,256.439 100.674,256.365 100.612 C 256.290 100.550,256.045 96.134,255.820 90.798 L 255.412 81.096 258.456 80.708 C 260.130 80.495,265.212 80.248,269.750 80.160 C 276.623 80.027,278.000 80.260,278.000 81.558 M300.749 82.167 L 305.229 83.295 304.566 90.032 C 303.712 98.690,301.778 106.509,300.500 106.466 C 299.950 106.447,294.890 105.556,289.256 104.485 C 281.098 102.935,279.104 102.229,279.468 101.019 C 279.969 99.348,282.000 83.400,282.000 81.133 C 282.000 79.977,283.327 79.836,289.135 80.376 C 293.059 80.741,298.285 81.547,300.749 82.167 M107.338 83.500 C 111.649 84.325,115.361 85.000,115.588 85.000 C 116.424 85.000,115.956 88.524,114.368 94.184 L 112.736 100.000 105.368 100.000 L 98.000 100.000 98.000 91.000 C 98.000 86.050,98.338 82.000,98.750 82.000 C 99.162 82.000,103.027 82.675,107.338 83.500 M252.000 91.000 L 252.000 100.000 244.658 100.000 L 237.317 100.000 236.223 96.250 C 235.621 94.188,234.836 90.875,234.479 88.888 L 233.829 85.276 241.165 83.750 C 252.913 81.305,252.000 80.694,252.000 91.000 M42.442 95.500 C 43.290 100.450,44.244 105.432,44.562 106.571 C 45.044 108.301,44.487 108.837,41.170 109.831 C 38.987 110.485,34.231 112.515,30.600 114.342 L 24.000 117.664 24.000 112.991 C 24.000 103.087,28.886 93.279,36.439 88.020 C 38.672 86.465,40.590 85.487,40.700 85.846 C 40.810 86.206,41.594 90.550,42.442 95.500 M192.303 93.705 C 190.761 94.368,188.723 94.930,187.774 94.955 C 185.829 95.006,180.409 91.961,180.074 90.631 C 179.954 90.152,181.576 88.717,183.678 87.441 L 187.500 85.121 191.303 88.810 L 195.106 92.500 192.303 93.705 M319.116 92.896 C 323.474 97.817,326.000 104.869,326.000 112.116 L 326.000 116.870 318.520 113.414 C 314.406 111.513,309.670 109.684,307.994 109.349 C 305.800 108.910,305.080 108.287,305.421 107.120 C 306.567 103.193,309.000 89.848,309.000 87.486 L 309.000 84.887 312.111 86.693 C 313.822 87.687,316.974 90.478,319.116 92.896 M167.157 88.312 L 170.815 90.562 166.896 92.818 C 163.373 94.845,162.569 94.951,158.955 93.868 L 154.934 92.664 158.163 89.332 C 161.961 85.414,162.370 85.367,167.157 88.312 M127.818 88.539 C 130.668 89.385,133.000 90.273,133.000 90.512 C 133.000 90.751,132.010 92.984,130.801 95.473 L 128.601 100.000 122.782 100.000 L 116.962 100.000 117.581 97.250 C 120.182 85.702,119.687 86.124,127.818 88.539 M230.418 88.750 C 230.723 89.713,231.370 92.638,231.857 95.250 L 232.742 100.000 226.891 100.000 C 221.082 100.000,221.026 99.972,219.020 96.040 C 217.909 93.862,217.000 91.691,217.000 91.215 C 217.000 90.310,225.278 87.261,228.183 87.096 C 229.108 87.043,230.114 87.787,230.418 88.750 M142.557 93.119 C 145.001 93.734,147.000 94.493,147.000 94.804 C 147.000 95.116,146.022 96.413,144.826 97.686 C 143.133 99.487,141.578 100.000,137.805 100.000 L 132.959 100.000 135.000 96.000 C 136.122 93.800,137.282 92.000,137.578 92.000 C 137.873 92.000,140.114 92.503,142.557 93.119 M214.011 95.250 C 215.101 97.037,215.994 98.779,215.996 99.119 C 215.998 99.460,214.325 100.010,212.277 100.342 C 209.149 100.850,208.112 100.523,205.787 98.296 C 202.698 95.337,202.803 94.995,207.322 93.326 C 211.829 91.661,211.821 91.659,214.011 95.250 M178.030 94.872 C 180.515 96.383,180.793 96.865,179.473 97.372 C 177.327 98.195,173.005 98.057,170.516 97.084 C 168.683 96.369,168.759 96.186,171.516 94.695 C 173.157 93.807,174.602 93.062,174.726 93.040 C 174.850 93.018,176.337 93.842,178.030 94.872 M157.863 97.988 C 159.224 98.705,152.000 101.000,148.383 101.000 C 146.902 101.000,146.988 100.641,148.981 98.520 C 151.285 96.068,153.918 95.910,157.863 97.988 M201.449 99.728 C 202.114 101.461,197.230 101.336,194.000 99.537 C 191.469 98.127,191.575 97.979,196.000 96.737 C 197.747 96.247,200.745 97.893,201.449 99.728 M189.500 103.908 C 206.526 107.467,217.002 112.996,228.537 124.510 C 235.852 131.813,241.101 140.222,245.221 151.239 C 247.908 158.424,248.370 161.138,248.768 172.073 C 249.154 182.690,248.892 185.931,247.083 192.910 C 243.296 207.520,234.965 221.339,223.915 231.339 C 202.706 250.532,169.484 254.878,142.484 241.993 C 136.092 238.942,124.884 230.872,121.452 226.850 C 112.446 216.294,107.243 206.970,103.400 194.500 C 100.760 185.933,100.774 164.097,103.426 155.000 C 111.242 128.187,133.278 108.568,161.287 103.489 C 171.521 101.633,179.159 101.746,189.500 103.908 M94.000 110.418 C 94.000 113.948,94.244 117.472,94.542 118.249 C 94.940 119.286,93.149 120.226,87.798 121.787 C 83.791 122.956,80.169 123.569,79.750 123.150 C 78.585 121.985,75.558 107.108,76.329 106.337 C 76.890 105.776,83.732 104.833,92.250 104.142 C 93.750 104.020,94.000 104.918,94.000 110.418 M111.616 106.250 C 111.277 107.487,110.723 110.147,110.386 112.160 C 109.832 115.470,109.366 115.922,105.515 116.892 C 103.174 117.481,100.525 118.245,99.629 118.589 C 98.212 119.133,98.000 118.225,98.000 111.607 L 98.000 104.000 105.117 104.000 C 112.013 104.000,112.214 104.070,111.616 106.250 M126.000 104.466 C 126.000 104.722,125.250 106.506,124.332 108.429 C 123.070 111.076,121.611 112.285,118.332 113.402 C 115.950 114.214,114.000 114.703,114.000 114.489 C 114.000 114.274,114.487 111.826,115.083 109.049 L 116.166 104.000 121.083 104.000 C 123.787 104.000,126.000 104.210,126.000 104.466 M136.052 106.445 C 133.965 108.666,128.000 111.595,128.000 110.398 C 128.000 110.125,128.687 108.573,129.526 106.950 C 130.792 104.501,131.671 104.000,134.700 104.000 L 138.349 104.000 136.052 106.445 M220.284 106.904 C 222.535 110.714,222.451 111.271,219.750 110.452 C 216.225 109.384,212.713 105.800,214.239 104.831 C 216.608 103.327,218.568 103.999,220.284 106.904 M234.917 109.049 C 235.513 111.826,236.000 114.239,236.000 114.410 C 236.000 114.582,234.034 114.273,231.632 113.723 C 227.846 112.857,226.982 112.143,225.145 108.362 L 223.026 104.000 228.430 104.000 L 233.834 104.000 234.917 109.049 M252.000 111.335 L 252.000 118.669 246.127 117.139 L 240.253 115.609 239.127 110.728 C 238.507 108.044,238.000 105.432,238.000 104.924 C 238.000 104.416,241.150 104.000,245.000 104.000 L 252.000 104.000 252.000 111.335 M274.616 105.906 C 274.908 106.142,271.824 118.780,270.911 121.093 L 269.888 123.686 262.372 121.593 C 254.969 119.531,254.865 119.457,255.428 116.625 C 255.743 115.044,256.000 111.669,256.000 109.125 L 256.000 104.500 265.250 105.156 C 270.337 105.517,274.552 105.854,274.616 105.906 M290.500 108.543 C 294.900 109.452,298.846 110.521,299.269 110.918 C 299.693 111.314,299.398 113.455,298.614 115.675 C 297.322 119.339,292.149 131.147,291.573 131.749 C 291.266 132.070,275.740 125.883,274.760 125.050 C 274.354 124.704,274.916 121.290,276.010 117.464 C 277.105 113.637,278.000 109.484,278.000 108.234 C 278.000 106.407,278.441 106.053,280.250 106.425 C 281.488 106.680,286.100 107.633,290.500 108.543 M73.413 115.252 C 74.465 119.788,75.484 123.955,75.678 124.512 C 75.872 125.068,72.330 126.868,67.807 128.512 C 63.283 130.155,59.311 131.622,58.979 131.771 C 58.234 132.105,50.000 113.546,50.000 111.534 C 50.000 110.535,63.324 107.370,68.500 107.138 C 71.458 107.006,71.527 107.120,73.413 115.252 M47.550 115.230 C 47.941 117.006,49.776 121.787,51.630 125.854 C 53.483 129.922,55.000 133.350,55.000 133.473 C 55.000 133.596,53.087 134.544,50.750 135.580 C 48.413 136.616,43.916 138.908,40.758 140.673 L 35.016 143.883 32.561 139.691 C 29.987 135.297,26.662 127.999,25.572 124.353 C 25.059 122.637,25.651 121.761,28.525 119.984 C 31.965 117.859,44.771 112.084,46.171 112.027 C 46.539 112.012,47.160 113.453,47.550 115.230 M310.000 114.083 C 317.530 116.934,325.005 121.090,324.976 122.409 C 324.937 124.210,320.483 134.500,317.651 139.333 L 315.003 143.850 305.252 138.765 C 299.888 135.969,295.394 133.609,295.264 133.521 C 295.135 133.434,296.766 129.343,298.889 124.431 C 301.012 119.519,303.017 114.713,303.343 113.750 C 304.066 111.620,303.405 111.587,310.000 114.083 M118.316 120.043 C 116.200 123.625,111.992 126.783,112.014 124.773 C 112.050 121.426,113.445 119.010,115.854 118.128 C 119.993 116.611,120.233 116.797,118.316 120.043 M236.625 119.292 C 236.820 119.487,237.276 121.130,237.639 122.944 L 238.298 126.242 235.598 124.472 C 234.113 123.499,232.251 121.453,231.461 119.925 L 230.024 117.147 233.148 118.042 C 234.866 118.535,236.431 119.097,236.625 119.292 M108.994 120.750 C 108.966 124.570,106.542 129.073,103.570 130.826 L 100.187 132.822 99.607 130.661 C 99.288 129.473,99.021 127.101,99.014 125.392 C 99.001 122.559,99.376 122.194,103.250 121.262 C 108.937 119.895,109.001 119.889,108.994 120.750 M250.543 127.386 C 250.173 130.179,249.686 132.647,249.462 132.871 C 248.612 133.722,241.999 127.820,241.986 126.199 C 241.979 125.265,241.716 123.545,241.403 122.377 C 240.852 120.323,240.999 120.288,246.025 121.281 L 251.217 122.308 250.543 127.386 M95.467 129.584 C 95.851 132.655,96.015 135.290,95.832 135.438 C 94.809 136.267,86.234 141.000,85.754 141.000 C 85.088 141.000,80.853 128.814,81.347 128.320 C 81.882 127.785,92.390 124.153,93.635 124.073 C 94.278 124.032,95.072 126.418,95.467 129.584 M262.068 125.605 C 265.056 126.488,267.796 127.389,268.159 127.608 C 269.109 128.181,264.778 141.000,263.634 141.000 C 263.107 141.000,260.724 139.856,258.338 138.458 C 255.287 136.670,254.003 135.261,254.011 133.708 C 254.030 129.977,255.223 124.000,255.949 124.000 C 256.328 124.000,259.081 124.722,262.068 125.605 M23.421 129.750 C 24.291 132.363,26.545 137.057,28.430 140.182 L 31.857 145.863 29.368 147.494 C 28.000 148.391,24.001 151.567,20.484 154.551 L 14.088 159.977 13.049 156.238 C 11.577 150.935,11.753 140.510,13.381 136.718 C 14.735 133.561,20.613 125.000,21.426 125.000 C 21.653 125.000,22.551 127.138,23.421 129.750 M331.777 127.262 C 336.039 131.800,338.412 138.944,338.332 147.000 C 338.290 151.125,337.748 155.768,337.127 157.318 L 335.998 160.136 330.249 155.231 C 327.087 152.534,323.019 149.310,321.209 148.066 C 318.995 146.545,318.215 145.428,318.826 144.652 C 320.725 142.245,325.777 132.345,326.941 128.750 C 328.356 124.381,328.910 124.210,331.777 127.262 M79.732 136.813 L 82.006 143.500 79.838 145.000 C 78.646 145.825,75.945 147.538,73.837 148.806 L 70.003 151.112 65.006 143.312 L 60.008 135.512 66.254 133.235 C 69.689 131.983,73.400 130.574,74.500 130.103 C 75.600 129.633,76.716 129.446,76.979 129.687 C 77.243 129.928,78.482 133.135,79.732 136.813 M281.250 132.174 C 285.512 133.929,289.000 135.716,289.000 136.147 C 289.000 136.577,286.945 140.314,284.433 144.452 L 279.865 151.975 274.183 148.367 C 271.057 146.382,268.309 144.584,268.076 144.372 C 267.551 143.893,272.310 129.041,273.000 129.008 C 273.275 128.995,276.988 130.419,281.250 132.174 M105.361 136.750 C 104.288 141.108,101.857 144.381,100.861 142.810 C 99.171 140.145,99.971 137.079,102.750 135.572 C 104.263 134.751,105.621 134.062,105.769 134.040 C 105.917 134.018,105.733 135.238,105.361 136.750 M247.574 136.772 C 249.138 138.076,249.506 139.225,249.072 141.453 L 248.497 144.407 246.892 141.953 C 244.843 138.819,243.623 134.993,244.683 135.022 C 245.132 135.034,246.433 135.822,247.574 136.772 M61.680 145.349 L 66.710 153.698 59.169 159.459 L 51.628 165.220 48.781 161.860 C 47.214 160.012,43.917 155.938,41.452 152.807 L 36.971 147.114 43.235 143.666 C 51.951 138.869,55.405 137.087,56.075 137.040 C 56.391 137.018,58.913 140.757,61.680 145.349 M308.784 144.844 L 313.069 147.076 306.950 154.986 C 303.585 159.336,300.280 163.352,299.607 163.911 C 298.727 164.642,296.247 163.378,290.770 159.408 L 283.157 153.890 288.157 145.525 L 293.156 137.159 298.828 139.886 C 301.948 141.385,306.428 143.617,308.784 144.844 M144.000 175.000 L 144.000 211.000 151.000 211.000 L 158.000 211.000 158.000 175.000 L 158.000 139.000 151.000 139.000 L 144.000 139.000 144.000 175.000 M180.641 140.750 C 180.369 141.713,178.524 149.700,176.541 158.500 C 172.355 177.076,170.333 185.909,168.985 191.500 C 167.148 199.126,165.000 209.129,165.000 210.062 C 165.000 210.578,167.895 211.000,171.433 211.000 C 178.604 211.000,178.050 211.597,180.002 201.750 L 181.142 196.000 189.000 196.000 L 196.858 196.000 197.998 201.750 C 199.952 211.608,199.381 211.000,206.684 211.000 C 212.738 211.000,213.194 210.849,212.711 209.003 C 212.424 207.905,208.659 191.708,204.344 173.010 L 196.500 139.014 188.817 139.007 C 182.352 139.001,181.057 139.277,180.641 140.750 M96.930 145.906 C 96.997 148.221,92.689 155.000,91.150 155.000 C 90.738 155.000,89.798 153.313,89.060 151.250 C 88.321 149.188,87.525 146.982,87.289 146.348 C 87.054 145.714,88.803 144.038,91.176 142.623 C 95.102 140.282,95.553 140.205,96.175 141.775 C 96.552 142.724,96.891 144.583,96.930 145.906 M258.443 143.099 C 262.425 145.448,262.722 146.988,260.131 151.850 L 258.346 155.199 255.673 152.023 C 253.129 149.000,252.026 143.307,253.667 141.667 C 254.565 140.768,254.417 140.724,258.443 143.099 M85.679 153.324 L 87.640 158.648 84.029 162.717 L 80.418 166.786 76.709 161.479 C 74.669 158.560,73.000 155.684,73.000 155.088 C 73.000 154.108,81.643 148.065,83.109 148.019 C 83.443 148.009,84.600 150.396,85.679 153.324 M274.628 153.520 L 277.224 155.591 273.248 161.268 L 269.271 166.945 265.635 163.016 C 263.636 160.855,262.000 158.675,262.000 158.171 C 262.000 157.667,262.926 155.162,264.057 152.604 L 266.114 147.954 269.072 149.702 C 270.699 150.663,273.199 152.381,274.628 153.520 M41.337 158.457 C 48.446 167.277,48.835 168.002,47.102 169.216 C 46.081 169.931,42.473 173.101,39.086 176.258 C 35.699 179.416,32.543 182.000,32.072 182.000 C 31.083 182.000,21.232 171.539,18.164 167.231 L 16.090 164.318 19.795 160.735 C 22.622 158.002,32.944 149.258,33.606 149.036 C 33.665 149.016,37.143 153.256,41.337 158.457 M320.906 152.649 C 322.883 154.106,326.611 157.326,329.192 159.804 L 333.883 164.310 331.029 168.405 C 329.460 170.657,325.921 174.699,323.164 177.387 L 318.153 182.274 310.076 174.946 C 305.634 170.916,302.000 167.466,302.000 167.279 C 302.000 167.092,304.475 164.022,307.500 160.457 C 310.525 156.891,313.558 153.080,314.240 151.987 C 315.855 149.401,316.599 149.475,320.906 152.649 M96.951 163.119 C 95.397 166.871,94.567 166.754,93.293 162.602 C 92.356 159.551,92.517 158.936,94.875 156.567 L 97.500 153.929 97.822 157.083 C 97.999 158.818,97.607 161.534,96.951 163.119 M255.729 157.938 C 256.651 159.414,256.668 160.653,255.803 163.137 L 254.666 166.398 253.310 162.480 C 251.350 156.819,253.044 153.638,255.729 157.938 M73.253 163.306 L 77.661 169.611 73.081 174.806 C 70.561 177.663,68.036 180.001,67.469 180.000 C 65.535 180.000,54.533 168.067,55.541 167.063 C 56.466 166.142,68.321 157.081,68.673 157.027 C 68.768 157.012,70.829 159.838,73.253 163.306 M288.452 162.577 C 292.053 165.095,295.000 167.470,295.000 167.856 C 295.000 169.490,281.969 181.362,281.165 180.461 C 280.694 179.932,278.406 177.388,276.080 174.807 L 271.851 170.114 276.122 164.057 C 278.472 160.726,280.734 158.000,281.149 158.000 C 281.564 158.000,284.851 160.060,288.452 162.577 M191.312 170.750 C 192.246 175.563,193.286 180.512,193.622 181.750 C 194.199 183.874,193.941 184.000,189.008 184.000 C 184.098 184.000,183.815 183.865,184.319 181.750 C 184.614 180.512,185.624 175.563,186.564 170.750 C 187.504 165.938,188.575 162.000,188.943 162.000 C 189.311 162.000,190.377 165.938,191.312 170.750 M264.257 167.554 L 266.999 170.608 263.829 174.918 L 260.660 179.227 258.742 175.488 C 256.905 171.909,256.896 171.560,258.527 167.290 C 259.464 164.837,260.519 163.206,260.873 163.665 C 261.226 164.124,262.749 165.874,264.257 167.554 M91.397 168.035 C 92.909 171.813,92.896 172.296,91.190 175.621 L 89.368 179.172 86.863 175.836 C 85.486 174.001,84.050 171.976,83.672 171.335 C 82.989 170.173,87.456 164.000,88.980 164.000 C 89.422 164.000,90.509 165.816,91.397 168.035 M340.791 182.152 C 341.283 188.542,339.264 195.899,335.687 200.747 L 333.432 203.804 331.050 199.652 C 329.740 197.368,326.899 193.151,324.737 190.280 L 320.805 185.060 325.683 180.280 C 328.366 177.651,331.889 173.747,333.511 171.604 L 336.460 167.708 338.408 172.104 C 339.479 174.522,340.552 179.043,340.791 182.152 M22.001 177.324 C 27.247 182.875,29.120 185.509,28.448 186.387 C 27.927 187.068,25.065 191.278,22.088 195.742 L 16.677 203.858 14.760 201.422 C 11.357 197.096,8.736 188.013,9.299 182.500 C 9.841 177.193,12.792 168.720,13.928 169.208 C 14.301 169.369,17.934 173.021,22.001 177.324 M59.961 190.664 C 57.018 194.424,54.470 197.691,54.297 197.925 C 53.889 198.478,37.212 187.152,36.327 185.720 C 35.943 185.099,39.049 181.417,43.486 177.231 L 51.322 169.839 58.316 176.833 L 65.310 183.827 59.961 190.664 M308.455 178.785 C 311.505 181.572,314.000 184.282,314.000 184.806 C 314.000 185.845,305.819 192.192,299.610 195.969 L 295.720 198.336 293.612 195.418 C 292.452 193.813,290.040 190.870,288.251 188.879 C 286.463 186.887,285.000 184.873,285.000 184.404 C 285.000 183.934,288.000 180.527,291.666 176.833 C 299.298 169.142,297.700 168.956,308.455 178.785 M83.062 177.250 C 87.328 182.660,87.375 182.929,84.952 188.103 C 83.690 190.796,82.398 192.981,82.079 192.957 C 81.761 192.933,79.113 190.774,76.195 188.160 L 70.891 183.406 75.030 178.703 C 77.307 176.116,79.469 174.000,79.835 174.000 C 80.201 174.000,81.653 175.463,83.062 177.250 M274.761 179.083 L 278.946 183.665 273.505 188.363 L 268.064 193.060 265.496 187.993 L 262.929 182.926 266.149 178.441 C 267.921 175.975,269.642 174.079,269.973 174.228 C 270.305 174.378,272.459 176.562,274.761 179.083 M256.230 185.790 L 254.500 188.448 254.176 185.086 C 253.998 183.236,254.148 180.548,254.510 179.112 L 255.167 176.500 256.563 179.816 C 257.803 182.762,257.766 183.430,256.230 185.790 M96.375 181.125 C 97.768 188.092,96.451 190.144,93.489 185.623 C 92.216 183.680,92.149 182.766,93.126 180.623 C 94.699 177.171,95.612 177.312,96.375 181.125 M79.830 197.120 C 80.199 198.082,74.177 209.000,73.277 209.000 C 71.316 209.000,58.086 200.295,58.470 199.258 C 58.724 198.576,61.063 195.352,63.670 192.095 L 68.408 186.173 73.954 191.217 C 77.004 193.992,79.648 196.648,79.830 197.120 M261.428 198.791 C 259.510 200.601,257.565 201.849,257.105 201.565 C 256.646 201.281,256.003 199.407,255.678 197.401 C 255.198 194.444,255.586 193.098,257.728 190.290 L 260.370 186.826 262.643 191.163 L 264.915 195.500 261.428 198.791 M287.371 193.743 C 290.383 197.452,292.769 200.551,292.674 200.631 C 292.578 200.711,288.852 202.786,284.393 205.242 L 276.285 209.708 273.091 203.230 L 269.896 196.752 275.198 191.921 C 278.114 189.265,280.814 187.070,281.198 187.045 C 281.581 187.020,284.359 190.034,287.371 193.743 M43.737 195.708 C 47.717 198.343,50.980 200.789,50.987 201.142 C 50.999 201.725,40.503 218.830,39.547 219.787 C 38.835 220.498,27.166 213.855,23.383 210.585 L 19.738 207.434 21.981 202.967 C 23.215 200.510,26.012 196.107,28.195 193.183 C 31.994 188.097,32.260 187.932,34.333 189.391 C 35.525 190.229,39.757 193.072,43.737 195.708 M92.889 191.064 C 94.724 193.545,95.028 194.876,94.489 198.064 C 94.123 200.229,93.526 201.988,93.162 201.973 C 92.798 201.958,90.947 200.658,89.048 199.084 L 85.596 196.222 87.450 192.111 C 88.470 189.850,89.601 188.000,89.964 188.000 C 90.327 188.000,91.643 189.379,92.889 191.064 M322.032 193.250 C 324.344 196.137,327.195 200.464,328.367 202.864 L 330.500 207.228 326.226 210.912 C 323.875 212.939,319.441 215.925,316.373 217.548 C 311.051 220.364,310.742 220.415,309.647 218.643 C 309.016 217.622,306.244 213.315,303.487 209.073 L 298.474 201.360 306.252 196.014 C 310.530 193.074,314.528 190.068,315.137 189.334 C 316.863 187.255,317.542 187.640,322.032 193.250 M102.361 206.809 L 102.973 210.117 99.987 207.991 C 96.714 205.660,96.717 205.667,97.643 201.036 L 98.285 197.823 100.017 200.661 C 100.969 202.223,102.024 204.989,102.361 206.809 M252.930 203.693 C 252.968 204.900,251.988 206.599,250.750 207.471 C 248.687 208.923,248.471 208.917,248.153 207.405 C 247.962 206.498,248.615 203.963,249.603 201.772 C 251.105 198.440,251.519 198.092,252.129 199.644 C 252.531 200.665,252.891 202.487,252.930 203.693 M88.324 203.608 C 91.792 206.831,92.090 207.507,91.525 210.852 C 90.444 217.253,89.986 217.447,83.237 214.365 L 77.175 211.597 80.102 205.798 C 81.712 202.609,83.360 200.012,83.764 200.027 C 84.169 200.042,86.221 201.654,88.324 203.608 M269.910 205.822 L 272.850 211.645 266.487 214.782 L 260.125 217.919 258.933 212.592 L 257.741 207.264 261.620 203.659 C 263.754 201.676,265.831 200.042,266.236 200.027 C 266.640 200.012,268.294 202.620,269.910 205.822 M63.988 208.615 L 71.931 213.230 70.553 216.365 C 69.795 218.089,68.140 221.877,66.875 224.783 C 64.707 229.764,64.409 230.029,61.670 229.427 C 58.261 228.679,44.844 223.244,43.782 222.182 C 42.927 221.327,53.721 204.000,55.108 204.000 C 55.624 204.000,59.620 206.077,63.988 208.615 M301.390 212.726 C 304.447 217.525,306.599 221.801,306.172 222.228 C 305.010 223.390,288.731 229.963,287.000 229.969 C 286.094 229.972,284.015 226.745,281.749 221.821 C 279.685 217.338,278.117 213.550,278.264 213.403 C 278.974 212.693,294.586 204.014,295.165 204.007 C 295.531 204.003,298.332 207.927,301.390 212.726 M99.667 212.777 C 101.923 214.717,103.026 216.717,103.502 219.731 L 104.169 223.962 99.335 221.852 C 96.676 220.691,94.354 219.615,94.175 219.462 C 93.599 218.968,95.204 209.999,95.864 210.027 C 96.214 210.042,97.925 211.279,99.667 212.777 M255.375 213.125 C 256.549 218.994,256.223 219.641,250.997 221.813 L 245.994 223.892 246.607 219.696 C 247.045 216.696,248.115 214.724,250.360 212.777 C 252.087 211.279,253.781 210.042,254.125 210.027 C 254.469 210.012,255.031 211.406,255.375 213.125 M20.985 213.482 C 21.662 214.297,25.750 217.052,30.071 219.603 L 37.926 224.242 36.396 227.201 C 34.355 231.147,31.009 241.729,30.964 244.380 C 30.934 246.109,29.925 245.437,25.500 240.743 C 18.318 233.124,15.298 222.954,17.630 214.250 C 18.332 211.630,19.270 211.415,20.985 213.482 M332.985 220.572 C 333.006 228.828,330.675 235.032,325.315 240.994 C 322.840 243.747,320.513 246.000,320.144 246.000 C 319.775 246.000,318.945 243.775,318.299 241.055 C 317.653 238.336,316.017 233.370,314.664 230.020 L 312.204 223.930 316.852 221.549 C 319.408 220.239,323.731 217.567,326.458 215.611 C 332.334 211.397,332.963 211.874,332.985 220.572 M82.500 218.477 C 85.800 220.000,88.631 221.359,88.791 221.497 C 89.373 222.000,85.818 236.000,85.108 236.000 C 84.117 236.000,68.584 231.917,68.230 231.563 C 67.703 231.036,75.263 215.045,75.883 215.377 C 76.222 215.559,79.200 216.954,82.500 218.477 M282.000 231.488 C 282.000 231.613,278.135 232.754,273.412 234.024 C 266.335 235.925,264.676 236.093,263.985 234.976 C 262.745 232.970,260.889 221.541,261.755 221.247 C 262.165 221.107,265.200 219.720,268.500 218.164 L 274.500 215.334 278.250 223.297 C 280.313 227.676,282.000 231.362,282.000 231.488 M113.621 225.250 C 115.181 228.248,114.458 228.622,110.547 226.839 C 108.912 226.095,108.000 224.870,108.000 223.421 C 108.000 222.180,107.703 220.339,107.340 219.332 C 106.361 216.615,111.790 221.730,113.621 225.250 M242.087 222.679 C 241.605 225.647,240.856 226.616,238.210 227.696 L 234.931 229.034 236.574 225.767 C 237.811 223.305,241.372 219.315,242.593 219.022 C 242.644 219.010,242.416 220.656,242.087 222.679 M99.257 225.996 C 103.657 227.942,103.786 228.130,104.467 233.580 C 104.851 236.654,105.015 239.306,104.832 239.474 C 104.298 239.964,91.211 237.565,90.504 236.847 C 89.417 235.743,92.158 224.000,93.503 224.000 C 94.187 224.000,96.776 224.898,99.257 225.996 M257.939 226.341 C 258.429 227.628,258.980 230.648,259.165 233.051 L 259.500 237.420 252.500 238.599 C 248.650 239.248,245.350 239.641,245.168 239.474 C 244.985 239.306,245.142 236.713,245.517 233.711 C 246.164 228.536,246.413 228.150,250.349 226.251 C 255.897 223.575,256.892 223.586,257.939 226.341 M53.661 230.696 L 62.822 234.273 61.334 238.887 C 60.515 241.424,59.138 246.200,58.272 249.500 C 57.407 252.800,56.571 255.659,56.413 255.853 C 55.477 257.009,34.000 248.884,34.000 247.374 C 34.000 245.598,37.311 234.440,39.024 230.445 C 40.593 226.784,41.389 225.934,42.759 226.456 C 43.716 226.821,48.622 228.729,53.661 230.696 M311.021 230.548 C 312.865 234.850,316.000 245.677,316.000 247.742 C 316.000 248.267,314.313 249.423,312.250 250.312 C 307.619 252.307,294.002 256.360,293.597 255.864 C 293.434 255.664,292.604 252.800,291.752 249.500 C 290.901 246.200,289.549 241.434,288.748 238.910 L 287.292 234.319 297.396 230.236 C 302.953 227.990,307.853 226.119,308.286 226.077 C 308.718 226.034,309.948 228.047,311.021 230.548 M112.914 231.582 C 116.196 232.895,117.127 233.925,118.392 237.637 L 119.916 242.110 115.208 241.429 C 112.619 241.054,109.938 240.299,109.250 239.751 C 108.095 238.831,107.398 230.000,108.480 230.000 C 108.744 230.000,110.739 230.712,112.914 231.582 M241.310 240.038 C 240.865 240.455,238.147 241.108,235.271 241.489 L 230.042 242.182 231.359 238.341 C 232.390 235.337,233.638 234.037,237.088 232.375 L 241.500 230.250 241.810 234.765 C 241.981 237.247,241.756 239.620,241.310 240.038 M84.819 240.488 C 84.994 240.662,84.657 243.406,84.069 246.586 C 83.481 249.766,83.000 253.860,83.000 255.684 C 83.000 258.615,82.688 259.000,80.318 259.000 C 75.403 259.000,60.000 256.749,60.000 256.030 C 60.000 254.896,65.166 238.662,66.098 236.865 C 66.870 235.379,67.744 235.455,75.723 237.701 C 80.551 239.060,84.643 240.314,84.819 240.488 M286.333 243.760 C 290.258 255.957,290.332 256.674,287.740 257.394 C 286.508 257.737,281.408 258.302,276.407 258.649 L 267.314 259.281 266.667 253.391 C 266.311 250.151,265.741 245.873,265.401 243.884 L 264.782 240.269 272.141 238.501 C 276.188 237.528,280.165 236.380,280.979 235.948 C 283.213 234.764,283.638 235.384,286.333 243.760 M127.025 238.250 C 131.505 241.285,131.931 243.000,128.206 243.000 C 126.577 243.000,124.795 242.438,124.245 241.750 C 122.723 239.848,121.746 236.000,122.785 236.000 C 123.290 236.000,125.199 237.012,127.025 238.250 M227.494 237.750 C 227.097 238.713,226.547 240.287,226.270 241.250 C 225.907 242.511,224.750 242.992,222.133 242.973 L 218.500 242.946 222.235 239.473 C 226.301 235.693,228.659 234.920,227.494 237.750 M96.812 242.397 C 100.834 243.164,104.271 243.951,104.450 244.146 C 104.629 244.341,105.097 247.762,105.489 251.750 L 106.203 259.000 96.464 259.000 L 86.724 259.000 87.407 251.465 C 87.983 245.105,88.749 240.996,89.357 241.001 C 89.436 241.002,92.791 241.630,96.812 242.397 M261.348 242.465 C 261.657 243.270,262.217 247.320,262.593 251.465 L 263.276 259.000 253.696 259.000 L 244.116 259.000 244.696 251.750 C 245.016 247.762,245.425 244.327,245.605 244.116 C 245.908 243.764,257.004 241.394,259.643 241.119 C 260.272 241.054,261.039 241.659,261.348 242.465 M120.120 246.098 C 121.414 246.763,125.415 255.982,124.688 256.623 C 124.585 256.714,121.282 257.199,117.349 257.701 L 110.199 258.612 109.610 255.056 C 109.287 253.100,109.017 249.868,109.011 247.873 L 109.000 244.246 113.750 244.755 C 116.362 245.035,119.229 245.639,120.120 246.098 M240.930 250.250 C 240.819 258.545,240.653 258.687,232.405 257.511 L 225.309 256.500 226.982 251.527 C 228.785 246.167,230.190 245.287,237.250 245.100 L 241.000 245.000 240.930 250.250 M137.381 251.000 C 139.692 254.492,139.804 255.001,138.264 255.011 C 137.294 255.017,134.823 255.299,132.774 255.638 C 128.820 256.292,128.731 256.200,126.566 249.250 C 125.912 247.150,126.160 247.000,130.300 247.000 C 134.365 247.000,134.954 247.333,137.381 251.000 M224.000 247.878 C 224.000 248.361,223.317 250.390,222.483 252.387 C 221.001 255.933,220.866 256.003,216.733 255.381 C 211.082 254.531,210.739 254.040,213.142 250.244 C 214.951 247.388,215.722 247.000,219.598 247.000 C 222.019 247.000,224.000 247.395,224.000 247.878 M148.258 249.832 C 151.500 251.970,150.912 253.000,146.448 253.000 C 144.119 253.000,142.778 252.309,141.592 250.500 C 139.980 248.040,139.999 248.000,142.727 248.007 C 144.252 248.010,146.741 248.832,148.258 249.832 M208.408 250.500 C 206.597 253.264,206.585 253.267,202.061 252.362 L 198.871 251.724 201.686 249.869 C 203.234 248.848,205.748 248.010,207.273 248.007 C 210.001 248.000,210.020 248.040,208.408 250.500 M44.500 256.417 L 54.500 259.819 54.455 263.909 C 54.430 266.159,54.317 271.388,54.205 275.530 L 54.000 283.060 49.921 280.780 C 43.898 277.414,37.634 270.023,35.683 263.980 C 34.261 259.578,33.400 252.982,34.250 253.008 C 34.388 253.012,39.000 254.546,44.500 256.417 M314.034 264.179 C 311.749 270.286,305.621 277.188,299.388 280.675 L 295.500 282.849 295.827 278.175 C 296.008 275.604,295.747 270.459,295.247 266.743 L 294.340 259.986 298.420 258.961 C 300.664 258.398,305.425 256.897,309.000 255.625 L 315.500 253.314 315.800 255.985 C 315.966 257.453,315.171 261.141,314.034 264.179 M169.896 254.914 C 170.970 255.595,170.557 256.178,168.099 257.449 C 164.996 259.053,164.822 259.028,161.877 256.550 L 158.847 254.000 163.673 254.015 C 166.328 254.024,169.128 254.428,169.896 254.914 M187.711 256.013 C 185.555 257.709,184.750 257.843,182.607 256.867 C 179.011 255.229,180.334 254.000,185.694 254.000 L 190.270 254.000 187.711 256.013 M157.669 258.014 L 161.101 261.028 156.409 263.039 C 153.828 264.145,151.608 264.926,151.474 264.775 C 151.340 264.624,150.283 262.926,149.125 261.002 L 147.020 257.503 150.260 256.328 C 152.042 255.681,153.666 255.118,153.868 255.076 C 154.070 255.034,155.781 256.356,157.669 258.014 M200.810 256.084 L 203.918 257.167 201.326 261.084 C 199.901 263.238,198.581 265.000,198.394 265.000 C 198.207 265.000,196.018 264.011,193.529 262.802 L 189.005 260.604 191.690 257.802 C 194.628 254.735,196.130 254.452,200.810 256.084 M145.692 262.735 L 148.185 266.970 141.843 269.925 C 138.354 271.550,135.230 272.570,134.900 272.190 C 133.952 271.099,131.000 263.100,131.000 261.622 C 131.000 260.268,137.927 258.080,141.349 258.352 C 142.374 258.434,144.311 260.389,145.692 262.735 M179.050 259.526 C 180.672 260.365,182.000 261.177,182.000 261.330 C 182.000 261.482,180.480 263.081,178.623 264.881 L 175.245 268.154 171.536 264.898 L 167.827 261.641 171.163 259.862 C 175.294 257.661,175.432 257.655,179.050 259.526 M218.538 259.653 C 219.535 260.036,219.364 261.517,217.767 266.322 C 216.638 269.720,215.629 272.612,215.526 272.748 C 215.089 273.323,203.000 267.597,203.000 266.815 C 203.000 266.343,204.210 264.128,205.689 261.893 C 208.323 257.913,208.470 257.843,212.817 258.495 C 215.258 258.861,217.833 259.382,218.538 259.653 M79.250 262.638 L 82.000 263.159 82.000 275.181 L 82.000 287.203 74.750 286.556 C 70.763 286.200,65.362 285.435,62.750 284.855 L 58.000 283.801 58.000 277.040 C 58.000 273.321,58.291 268.156,58.647 265.562 L 59.293 260.845 67.897 261.481 C 72.628 261.831,77.737 262.352,79.250 262.638 M128.769 267.694 C 129.966 271.376,130.788 274.545,130.597 274.737 C 129.795 275.538,113.446 280.753,112.852 280.397 C 112.495 280.183,111.901 276.744,111.530 272.754 C 111.160 268.764,110.642 264.738,110.379 263.807 C 109.892 262.082,111.379 261.773,123.046 261.180 C 126.575 261.001,126.603 261.032,128.769 267.694 M233.917 261.649 L 240.127 262.298 239.458 268.548 C 239.090 271.986,238.499 276.165,238.144 277.834 L 237.500 280.870 228.353 277.750 L 219.207 274.631 220.480 270.565 C 223.775 260.049,223.072 260.516,233.917 261.649 M291.358 264.750 C 291.699 266.813,291.983 271.970,291.989 276.211 L 292.000 283.923 288.250 284.870 C 286.188 285.390,280.788 286.114,276.250 286.477 L 268.000 287.137 268.000 275.190 L 268.000 263.242 276.750 262.267 C 291.473 260.627,290.654 260.487,291.358 264.750 M107.591 271.912 C 108.465 276.995,108.888 281.445,108.533 281.801 C 107.453 282.880,93.750 285.913,89.750 285.958 C 86.097 285.999,85.997 285.903,85.881 282.250 C 85.691 276.242,85.687 274.822,85.848 268.786 L 86.000 263.072 95.750 262.786 C 101.112 262.629,105.613 262.538,105.752 262.585 C 105.891 262.632,106.718 266.829,107.591 271.912 M190.715 265.637 C 193.347 267.087,195.681 268.430,195.902 268.622 C 196.122 268.813,194.628 271.493,192.581 274.576 C 188.398 280.876,189.295 280.954,181.244 273.579 L 177.988 270.596 181.697 266.798 C 183.737 264.709,185.524 263.000,185.667 263.000 C 185.811 263.000,188.083 264.187,190.715 265.637 M264.432 270.915 C 265.350 281.436,264.489 286.000,261.588 286.000 C 259.300 286.000,242.026 282.404,241.557 281.830 C 241.408 281.649,241.967 277.337,242.798 272.250 L 244.310 263.000 254.026 263.000 L 263.742 263.000 264.432 270.915 M168.334 267.289 L 172.031 270.578 168.765 273.570 C 160.789 280.878,161.666 280.819,157.606 274.327 L 153.990 268.546 158.245 266.318 C 160.585 265.093,162.981 264.070,163.568 264.045 C 164.156 264.020,166.300 265.480,168.334 267.289 M154.450 276.623 C 158.747 283.094,159.013 282.468,149.000 289.433 C 144.859 292.313,142.357 293.508,142.106 292.727 C 141.889 292.052,140.453 288.205,138.915 284.177 L 136.119 276.855 142.309 274.001 C 145.714 272.432,148.999 271.115,149.608 271.074 C 150.218 271.033,152.397 273.530,154.450 276.623 M207.629 273.648 C 210.858 275.105,213.636 276.403,213.802 276.533 C 214.488 277.072,207.419 292.999,206.500 292.985 C 205.950 292.977,202.427 290.703,198.670 287.931 L 191.840 282.893 193.591 280.196 C 194.554 278.713,196.277 276.043,197.421 274.262 C 198.564 272.482,200.008 271.019,200.629 271.012 C 201.250 271.006,204.400 272.192,207.629 273.648 M181.006 278.825 L 186.393 283.650 180.946 290.791 C 177.951 294.719,175.205 297.948,174.845 297.967 C 173.976 298.011,163.985 284.506,164.052 283.378 C 164.104 282.494,174.017 274.072,175.060 274.025 C 175.367 274.011,178.043 276.171,181.006 278.825 M138.983 295.586 C 138.992 296.183,134.535 299.007,129.078 301.861 L 119.156 307.050 117.616 301.753 C 115.162 293.308,113.750 285.916,114.458 285.209 C 114.817 284.850,119.010 283.173,123.775 281.484 L 132.440 278.411 135.703 286.456 C 137.498 290.880,138.974 294.989,138.983 295.586 M227.830 281.611 C 232.048 283.048,235.822 284.518,236.215 284.877 C 236.608 285.236,235.996 289.123,234.855 293.515 C 233.714 297.907,232.553 302.512,232.274 303.750 C 231.581 306.827,230.164 306.613,221.228 302.082 C 209.168 295.969,209.567 296.596,213.032 289.208 C 214.655 285.748,216.267 281.784,216.615 280.399 C 217.033 278.732,217.739 278.070,218.703 278.440 C 219.504 278.747,223.611 280.174,227.830 281.611 M110.959 290.750 C 111.629 293.363,112.972 298.271,113.944 301.659 L 115.711 307.817 110.605 309.364 C 102.489 311.824,92.971 313.378,92.065 312.392 C 90.772 310.984,88.140 302.039,87.195 295.841 L 86.331 290.182 94.266 289.021 C 98.630 288.383,103.168 287.471,104.351 286.994 C 108.688 285.244,109.693 285.815,110.959 290.750 M166.326 293.571 L 171.981 301.141 168.861 305.023 C 164.389 310.588,156.018 317.418,154.963 316.363 C 153.080 314.480,145.000 299.459,145.000 297.842 C 145.000 296.903,145.787 295.863,146.750 295.532 C 147.713 295.200,150.975 292.953,154.000 290.539 C 157.025 288.125,159.764 286.116,160.086 286.075 C 160.408 286.034,163.216 289.407,166.326 293.571 M196.697 291.105 C 200.439 293.914,203.889 296.575,204.365 297.021 C 205.148 297.753,198.814 310.853,195.513 315.329 C 193.712 317.771,192.160 316.840,183.834 308.321 L 177.167 301.500 183.334 293.771 C 186.725 289.521,189.589 286.033,189.697 286.021 C 189.805 286.010,192.955 288.297,196.697 291.105 M254.500 288.568 C 259.450 289.457,263.605 290.285,263.732 290.408 C 264.265 290.921,261.643 303.452,260.093 307.799 C 258.028 313.592,256.282 313.909,244.000 310.712 C 234.178 308.156,234.589 309.246,238.145 295.190 C 240.413 286.224,240.592 285.900,243.000 286.416 C 244.375 286.711,249.550 287.680,254.500 288.568 M72.920 289.875 L 82.478 290.500 83.200 295.535 C 83.597 298.304,84.773 303.304,85.813 306.645 L 87.703 312.721 83.602 311.814 C 72.361 309.327,64.425 302.138,59.961 290.398 C 59.081 288.083,59.186 287.924,61.180 288.557 C 62.380 288.938,67.663 289.531,72.920 289.875 M290.013 290.466 C 285.734 301.720,278.996 308.142,268.061 311.389 L 262.778 312.958 263.412 310.729 C 264.142 308.161,267.009 295.582,267.623 292.250 C 268.003 290.190,268.606 289.994,274.769 289.926 C 280.122 289.867,289.494 288.809,290.725 288.125 C 290.849 288.056,290.529 289.110,290.013 290.466 M220.379 305.839 L 230.047 310.674 226.021 318.587 C 223.807 322.939,221.131 327.520,220.075 328.766 L 218.154 331.031 212.827 328.939 C 208.699 327.318,199.093 322.137,197.233 320.530 C 197.086 320.403,198.557 317.656,200.503 314.426 C 202.448 311.195,205.007 306.411,206.190 303.794 C 207.742 300.360,208.669 299.310,209.525 300.021 C 210.177 300.562,215.061 303.180,220.379 305.839 M143.598 304.227 C 144.644 306.551,147.159 311.023,149.187 314.163 L 152.874 319.872 148.187 322.878 C 145.609 324.532,140.849 327.098,137.608 328.580 L 131.717 331.276 129.894 328.888 C 127.592 325.871,121.000 312.830,121.000 311.291 C 121.000 310.656,124.713 308.260,129.250 305.966 C 133.787 303.672,137.928 301.391,138.450 300.898 C 140.308 299.142,141.721 300.056,143.598 304.227 M183.109 313.046 L 191.341 321.092 185.920 326.624 C 182.939 329.666,179.247 333.062,177.716 334.170 C 175.029 336.114,174.836 336.123,172.216 334.417 C 170.722 333.444,166.941 329.975,163.814 326.707 L 158.128 320.766 166.314 312.922 C 170.816 308.608,174.585 305.061,174.688 305.039 C 174.792 305.018,178.581 308.621,183.109 313.046 M121.773 322.126 L 126.822 332.252 119.595 331.788 C 110.521 331.205,104.518 328.336,98.196 321.557 L 93.500 316.522 99.216 315.801 C 102.359 315.405,107.084 314.419,109.716 313.610 C 112.347 312.801,115.000 312.108,115.612 312.070 C 116.223 312.031,118.996 316.557,121.773 322.126 M241.932 314.024 C 246.020 315.111,250.858 316.000,252.682 316.000 C 254.507 316.000,255.997 316.337,255.994 316.750 C 255.977 318.698,247.771 326.760,243.772 328.757 C 238.307 331.486,230.045 333.159,226.014 332.353 L 223.032 331.756 225.603 327.628 C 227.017 325.358,229.334 320.913,230.751 317.750 C 232.168 314.587,233.591 312.011,233.914 312.024 C 234.236 312.036,237.845 312.936,241.932 314.024 M162.380 330.606 C 166.564 334.790,169.772 338.559,169.510 338.983 C 168.757 340.203,160.539 342.000,155.716 342.000 C 153.297 342.000,149.185 341.358,146.578 340.574 C 139.783 338.529,132.108 333.000,136.064 333.000 C 137.810 333.000,147.240 328.346,151.000 325.628 C 152.925 324.237,154.562 323.076,154.637 323.049 C 154.713 323.022,158.197 326.423,162.380 330.606 M207.206 330.321 C 210.895 332.069,213.790 333.950,213.641 334.500 C 212.999 336.866,202.648 341.259,196.564 341.747 C 190.506 342.233,178.959 339.912,179.031 338.222 C 179.048 337.825,181.126 335.945,183.648 334.043 C 186.170 332.142,189.644 328.907,191.367 326.854 L 194.500 323.121 197.500 325.131 C 199.150 326.237,203.518 328.572,207.206 330.321 " stroke="none" fill="black" fill-rule="evenodd"/></svg>